<svg width="124" height="38" viewBox="0 0 124 38" fill="none" xmlns="http://www.w3.org/2000/svg">
<g clip-path="url(#clip0)">
<path d="M53.8218 7.45348H47.1745V8.74006H53.4542V10.5168H47.1745V11.834H53.9137V13.8864H44.5707V5.37045H53.8218V7.45348Z" fill="#0FB8D3"/>
<path d="M57.9266 13.8558H55.1083L59.7339 5.40111H63.0422L67.5759 13.8558H64.727L63.9 12.4466H58.7536L57.9266 13.8558ZM59.7339 10.3943H62.981L61.3268 7.39224L59.7339 10.3943Z" fill="#0FB8D3"/>
<path d="M68.6174 11.0376H71.16V11.1907C71.1293 11.4358 71.2212 11.6808 71.405 11.834C71.7113 11.9872 72.0483 12.0178 72.3853 11.9872H75.6323C75.8774 12.0178 76.1225 11.9565 76.3063 11.834C76.4594 11.7115 76.5207 11.497 76.5207 11.2826C76.5513 11.0682 76.4594 10.8538 76.2756 10.7312C76.1531 10.67 76.0306 10.6087 75.8774 10.5781C75.663 10.5474 75.4485 10.5168 75.2647 10.5168L71.1906 10.4249C70.7617 10.4249 70.3329 10.3943 69.9346 10.2717C69.6283 10.2105 69.3526 10.0573 69.1382 9.84287C68.7706 9.47528 68.6174 8.83199 68.6174 7.91301C68.6174 7.51478 68.6481 7.11655 68.7706 6.71833C68.8625 6.412 69.0157 6.16694 69.2301 5.95251C69.5058 5.70745 69.8121 5.52365 70.1797 5.43175C70.823 5.30922 71.4663 5.24796 72.1096 5.27859H76.0612C77.0414 5.27859 77.746 5.46239 78.1749 5.79935C78.6037 6.16694 78.8181 6.74896 78.8181 7.54541V7.72921L78.7875 8.03554H76.3063V8.00491C76.3369 7.75984 76.245 7.54541 76.0918 7.36162C75.908 7.20845 75.6936 7.14719 75.4485 7.14719H72.4772C72.1402 7.11655 71.8032 7.17782 71.4969 7.30035C71.3437 7.42288 71.2519 7.60668 71.2519 7.82111C71.2212 8.03554 71.3131 8.21934 71.4663 8.34187C71.7113 8.4644 71.987 8.5563 72.2627 8.5563L76.5207 8.61756C76.9495 8.61756 77.3478 8.67883 77.746 8.77073C78.0523 8.86262 78.3587 9.01579 78.5731 9.23022C78.9713 9.62844 79.1857 10.333 79.1857 11.3132C79.2164 11.7727 79.1245 12.2322 78.9713 12.6611C78.8181 12.998 78.5424 13.3044 78.2361 13.4882C77.9604 13.6413 77.6541 13.7639 77.3171 13.7945C76.7657 13.8558 76.1837 13.8864 75.6323 13.8864H72.1708C70.7617 13.8864 69.8121 13.7332 69.322 13.4269C68.8319 13.1206 68.6174 12.5079 68.6174 11.6502V11.4051V11.0376Z" fill="#0FB8D3"/>
<path d="M87.5178 13.8557H84.9447V10.7925L80.2579 5.37045H83.4437L86.2313 8.74006L89.1414 5.37045H92.2046L87.5178 10.7925V13.8557Z" fill="#0FB8D3"/>
<path d="M52.2595 26.4152H44.5707V17.9299H51.8919C52.8109 17.9299 53.4849 18.1137 53.9137 18.5119C54.3426 18.9102 54.5876 19.4922 54.5876 20.2886C54.6489 21.0851 54.1588 21.8203 53.393 22.0653C53.8218 22.096 54.2507 22.341 54.5264 22.678C54.8021 23.1068 54.9246 23.597 54.894 24.0871C54.894 24.8835 54.6795 25.4656 54.2813 25.8332C53.8831 26.2007 53.1785 26.4152 52.2595 26.4152ZM51.4018 21.2382C51.5856 21.2382 51.7388 21.177 51.8919 21.0544C52.0145 20.9013 52.0757 20.7175 52.0451 20.5337C52.0451 20.3499 51.9838 20.1661 51.8613 20.0436C51.7388 19.921 51.5856 19.8291 51.4018 19.8291H47.052V21.2382H51.4018ZM51.6163 24.4853C51.8 24.4853 51.9838 24.424 52.1064 24.2709C52.2289 24.1177 52.2902 23.9033 52.2902 23.6889C52.2902 23.5051 52.2289 23.2906 52.1064 23.1375C51.9838 23.0149 51.8 22.923 51.6163 22.923H47.0213V24.4547L51.6163 24.4853Z" fill="#0FB8D3"/>
<path d="M60.6529 26.5071C59.9484 26.5377 59.2438 26.4764 58.5699 26.3845C58.1717 26.3233 57.8347 26.1701 57.4977 25.925C57.1914 25.68 56.9463 25.343 56.8238 24.9754C56.6706 24.4853 56.6094 23.9339 56.6094 23.4132V21.1157C56.5788 20.5337 56.6706 19.9823 56.8238 19.4309C56.9463 19.0327 57.1914 18.6957 57.4977 18.4506C57.8347 18.2362 58.2023 18.0524 58.5699 17.9911C59.2438 17.8686 59.9484 17.838 60.6529 17.838H63.563C64.2676 17.8074 64.9415 17.8686 65.6461 17.9605C66.0443 18.0218 66.4119 18.1749 66.7488 18.42C67.0552 18.6651 67.3002 19.002 67.4228 19.4003C67.5759 19.921 67.6372 20.4418 67.6372 20.9932V23.3519C67.6372 23.8726 67.5759 24.424 67.4228 24.9448C67.3002 25.343 67.0858 25.68 66.7488 25.925C66.4425 26.1701 66.0443 26.3233 65.6461 26.3845C64.9721 26.4764 64.2676 26.5377 63.563 26.5071H60.6529ZM61.3268 24.3934H62.8891C63.7468 24.3934 64.3288 24.2709 64.6352 24.0564C64.9415 23.842 65.064 23.4132 65.064 22.7699V21.5752C65.064 20.9625 64.9109 20.5337 64.6352 20.2886C64.3595 20.0435 63.7775 19.921 62.8891 19.9516H61.2962C60.4079 19.9516 59.8258 20.0742 59.5501 20.2886C59.2744 20.5337 59.1213 20.9625 59.1213 21.6058V22.7699C59.1213 23.3825 59.2744 23.8114 59.5501 24.0258C59.8258 24.2402 60.4691 24.3934 61.3268 24.3934Z" fill="#0FB8D3"/>
<path d="M73.4574 26.5071C72.7528 26.5377 72.0482 26.4764 71.3743 26.3845C70.9761 26.3233 70.6391 26.1701 70.3022 25.925C69.9958 25.68 69.7508 25.343 69.6283 24.9754C69.4751 24.4853 69.4138 23.9339 69.4138 23.4132V21.1157C69.3832 20.5337 69.4751 19.9823 69.6283 19.4309C69.7508 19.0327 69.9958 18.6957 70.3022 18.4506C70.6391 18.2056 71.0067 18.0524 71.405 17.9911C72.0789 17.8686 72.7834 17.838 73.4574 17.838H76.3675C77.072 17.8074 77.7459 17.8686 78.4505 17.9605C78.8487 18.0218 79.2163 18.1749 79.5533 18.42C79.8596 18.6651 80.1047 19.002 80.2272 19.4003C80.3804 19.921 80.4416 20.4418 80.4416 20.9932V23.3519C80.4416 23.8726 80.3804 24.424 80.2272 24.9448C80.1047 25.343 79.8902 25.68 79.5533 25.925C79.247 26.1701 78.8487 26.3233 78.4811 26.3845C77.8072 26.4764 77.1027 26.5377 76.3981 26.5071H73.4574ZM74.1313 24.3934H75.6935C76.5513 24.3934 77.1333 24.2709 77.4396 24.0564C77.7459 23.842 77.8685 23.4132 77.8685 22.7699V21.5752C77.8685 20.9625 77.7153 20.5337 77.4396 20.2886C77.1639 20.0435 76.5819 19.921 75.6935 19.9516H74.1006C73.2123 19.9516 72.6303 20.0742 72.3239 20.2886C72.0176 20.503 71.8951 20.9625 71.8951 21.6058V22.7699C71.8951 23.3825 72.0482 23.8114 72.3239 24.0258C72.6609 24.2709 73.2429 24.3934 74.1313 24.3934Z" fill="#0FB8D3"/>
<path d="M84.8834 21.0851H85.9249L89.172 17.9299H92.4803L88.0999 22.1266L93.0624 26.4152H89.6009L85.9249 23.2294H84.8834V26.4152H82.4022V17.9299H84.8834V21.0851Z" fill="#0FB8D3"/>
<path d="M96.9221 26.4152H94.4408V17.9299H96.9221V26.4152Z" fill="#0FB8D3"/>
<path d="M110.155 26.4152H106.51L101.64 20.258V26.4152H99.1583V17.9299H102.834L107.674 24.1484V17.9299H110.155V26.4152Z" fill="#0FB8D3"/>
<path d="M119.927 20.9932C119.958 20.6562 119.835 20.3499 119.59 20.1661C119.376 20.0129 118.855 19.9517 118.059 19.9517H116.619C115.761 19.9517 115.24 20.0436 114.995 20.258C114.75 20.4724 114.628 20.9013 114.628 21.6059V22.7699C114.628 23.3826 114.75 23.8114 115.026 24.0258C115.302 24.2403 115.823 24.3628 116.619 24.3628H118.059C118.549 24.3934 119.07 24.3322 119.529 24.1484C119.805 24.0258 119.958 23.7501 119.927 23.4438L119.897 23.2294V23.1988H117.017V21.514H122.531V24.3015C122.531 25.098 122.255 25.6494 121.673 25.9863C121.091 26.3233 120.111 26.5071 118.733 26.5071H115.976C115.332 26.5377 114.72 26.4765 114.107 26.3539C113.739 26.262 113.372 26.1089 113.066 25.8638C112.729 25.6187 112.484 25.2512 112.361 24.8836C112.208 24.3934 112.116 23.9033 112.147 23.3826V21.0851C112.147 19.8904 112.422 19.0327 112.974 18.5426C113.525 18.0525 114.536 17.8074 115.976 17.8074H118.733C119.192 17.8074 119.59 17.8074 119.897 17.838C120.172 17.838 120.448 17.8993 120.693 17.9299C121.061 17.9912 121.398 18.1137 121.704 18.3588C121.949 18.5732 122.164 18.8795 122.255 19.1859C122.378 19.6147 122.439 20.0436 122.439 20.4724V20.7481V20.9319L119.927 20.9932Z" fill="#0FB8D3"/>
<path d="M25.9459 4.17584C33.359 5.95254 37.9233 13.3657 36.1466 20.7788C34.3699 28.1919 26.9568 32.7562 19.5437 30.9795C16.9399 30.3669 14.5811 28.9884 12.7432 27.0585C12.6819 27.0892 12.6207 27.1198 12.5594 27.1504C17.2462 33.7058 26.3748 35.2375 32.9302 30.5507C39.4856 25.8638 41.0172 16.7353 36.3304 10.1799C33.9104 6.81026 30.112 4.6047 25.9459 4.17584Z" fill="#0FB8D3"/>
<path d="M22.4538 4.84982C15.2551 4.84982 9.40427 10.7007 9.40427 17.8994C9.40427 18.2976 9.40427 18.6652 9.46553 19.0328C10.0782 18.6346 10.6908 18.2363 11.3341 17.8381C12.8351 10.7926 19.7888 6.28956 26.8343 7.8212C29.8057 8.46449 32.4707 10.1187 34.3393 12.508C32.2257 7.8212 27.5695 4.84982 22.4538 4.84982Z" fill="#0FB8D3"/>
<path d="M23.4035 34.7779C18.3798 34.7779 13.6623 32.4498 10.599 28.4676C10.4459 28.5901 10.2621 28.7126 10.0783 28.8352C9.43498 29.3253 8.82232 29.846 8.2403 30.3974C7.93397 30.7038 7.68891 30.9795 7.44385 31.2858C14.5507 38.5764 26.1911 38.7296 33.4817 31.6227C34.2782 30.8569 34.9827 30.0298 35.5954 29.1415C32.5627 32.7255 28.0903 34.7779 23.4035 34.7779Z" fill="#0FB8D3"/>
<path d="M5.23819 22.3411C5.91211 21.7284 6.61666 21.1158 7.38248 20.5337C7.32122 19.9211 7.29058 19.2778 7.29058 18.6345C7.29058 9.72037 14.5199 2.52167 23.4341 2.52167C29.0399 2.52167 34.2474 5.46241 37.1882 10.2411C32.6545 1.14319 21.5961 -2.59401 12.4675 1.90901C4.16604 6.0138 0.214411 15.6019 3.18579 24.3628C3.76781 23.7195 4.44174 23.0763 5.23819 22.3411Z" fill="#0FB8D3"/>
<path d="M25.9459 4.17584C33.359 5.95254 37.9233 13.3657 36.1466 20.7788C34.3699 28.1919 26.9568 32.7562 19.5437 30.9795C16.9399 30.3669 14.5811 28.9884 12.7432 27.0585C12.6819 27.0892 12.6207 27.1198 12.5594 27.1504C17.2462 33.7058 26.3748 35.2375 32.9302 30.5507C39.4856 25.8638 41.0172 16.7353 36.3304 10.1799C33.9104 6.81026 30.112 4.6047 25.9459 4.17584Z" fill="#0FB8D3"/>
<path d="M22.4538 4.84982C15.2551 4.84982 9.40427 10.7007 9.40427 17.8994C9.40427 18.2976 9.40427 18.6652 9.46553 19.0328C10.0782 18.6346 10.6908 18.2363 11.3341 17.8381C12.8351 10.7926 19.7888 6.28956 26.8343 7.8212C29.8057 8.46449 32.4707 10.1187 34.3393 12.508C32.2257 7.8212 27.5695 4.84982 22.4538 4.84982Z" fill="#0FB8D3"/>
<path d="M23.4035 34.7779C18.3798 34.7779 13.6623 32.4498 10.599 28.4676C10.4459 28.5901 10.2621 28.7126 10.0783 28.8352C9.43498 29.3253 8.82232 29.846 8.2403 30.3974C7.93397 30.7038 7.68891 30.9795 7.44385 31.2858C14.5507 38.5764 26.1911 38.7296 33.4817 31.6227C34.2782 30.8569 34.9827 30.0298 35.5954 29.1415C32.5627 32.7255 28.0903 34.7779 23.4035 34.7779Z" fill="#0FB8D3"/>
<path d="M5.23819 22.3411C5.91211 21.7284 6.61666 21.1158 7.38248 20.5337C7.32122 19.9211 7.29058 19.2778 7.29058 18.6345C7.29058 9.72037 14.5199 2.52167 23.4341 2.52167C29.0399 2.52167 34.2474 5.46241 37.1882 10.2411C32.6545 1.14319 21.5961 -2.59401 12.4675 1.90901C4.16604 6.0138 0.214411 15.6019 3.18579 24.3628C3.76781 23.7195 4.44174 23.0763 5.23819 22.3411Z" fill="#0FB8D3"/>
<path d="M12.7432 23.2906C10.6602 24.3934 8.69968 25.7106 6.86172 27.2116C5.97336 27.9468 5.17691 28.7432 4.41109 29.6009C3.64527 30.428 3.03262 31.3776 2.54249 32.4191C2.32806 32.9093 2.14427 33.43 2.083 33.9814C2.05237 34.2571 2.05237 34.5022 2.083 34.7779C2.11364 35.0229 2.20553 35.268 2.29743 35.5131C2.54249 36.0032 2.91009 36.3708 3.36958 36.6465C3.8597 36.9222 4.34983 37.1366 4.90122 37.2898C6.03463 37.5654 7.19868 37.7186 8.36272 37.7799C9.52677 37.8105 10.7214 37.8105 11.8855 37.7492C10.7214 37.8718 9.52677 37.9637 8.36272 37.9943C7.16804 38.0249 6.004 37.933 4.83995 37.7186C4.25793 37.5961 3.67591 37.4123 3.12452 37.1366C2.23617 36.7077 1.62351 35.8806 1.43971 34.931C1.37845 34.6247 1.37845 34.2877 1.37845 33.9814C1.40908 33.3688 1.56225 32.7561 1.80731 32.1741C2.2668 31.0407 2.87945 29.9992 3.64527 29.0189C4.38046 28.0693 5.20755 27.1809 6.06526 26.3539C7.75007 24.7609 9.61867 23.3212 11.6098 22.1265L12.7432 23.2906Z" fill="#0FB8D3"/>
<path d="M13.846 25.4656C12.345 26.2314 10.9358 27.1504 9.588 28.1613C8.91408 28.6514 8.27079 29.2028 7.65814 29.7848C7.04548 30.3668 6.52472 31.0101 6.09587 31.7147C5.88144 32.0516 5.72827 32.4499 5.63637 32.8481C5.54448 33.2157 5.51384 33.6139 5.57511 33.9815C5.63637 34.1653 5.69764 34.3491 5.78954 34.5023L5.9427 34.7473L6.1265 34.9924C6.37156 35.2987 6.70852 35.5438 7.04548 35.7582C7.41307 35.9726 7.8113 36.0952 8.20953 36.1871L8.51585 36.2483L8.82218 36.3096C9.03661 36.3402 9.25104 36.3709 9.46547 36.4015C10.3232 36.4934 11.1809 36.524 12.0693 36.4934C11.2115 36.5853 10.3232 36.6465 9.43484 36.6159C9.22041 36.6159 8.97535 36.6159 8.79155 36.5853L8.45459 36.5546L8.11763 36.4934C7.65814 36.4321 7.22928 36.279 6.83105 36.0952C6.40219 35.9114 6.0346 35.6357 5.69764 35.3293L5.45258 35.0536L5.26878 34.7473C5.14625 34.5329 5.05435 34.3185 4.96245 34.104C4.80929 33.6445 4.80929 33.1544 4.90119 32.6643C4.99309 32.2048 5.14625 31.7453 5.36068 31.3164C5.7589 30.4894 6.27966 29.7542 6.89232 29.0496C7.47434 28.3757 8.11763 27.7324 8.79155 27.1504C10.17 25.9557 11.671 24.8836 13.2027 23.9339L13.846 25.4656Z" fill="#0FB8D3"/>
<path d="M12.0387 19.7373C11.9468 19.6454 11.9468 19.4922 12.008 19.4003C12.0693 19.3084 12.1612 19.2472 12.2531 19.2472H12.3144L13.1415 19.4003C13.1415 19.4003 13.1721 19.4003 13.2027 19.4003C14.9794 18.3588 16.8787 17.5317 18.8085 16.9191L17.767 15.6938C13.8766 17.1029 9.343 19.8292 5.85086 22.9844C2.69568 25.8332 1.80733 27.5793 0 31.2859C2.23619 27.8856 4.77871 25.0368 7.81136 22.8618C8.94477 22.0654 10.5377 20.9932 12.2531 19.9824L12.0387 19.7373Z" fill="#0FB8D3"/>
<path d="M28.3353 15.0505C28.2434 15.0811 28.1821 15.1118 28.1209 15.1424C27.9677 15.2037 27.8452 15.2649 27.692 15.3568L25.2107 16.5821L23.8016 15.8776L24.8125 15.2649C25.0882 15.1118 25.1495 14.7748 24.9963 14.4991C24.9657 14.4685 24.9657 14.4379 24.9351 14.4379C24.69 14.1315 24.2305 14.1009 23.9548 14.346L23.9242 14.3766L22.8214 15.3875L17.5832 12.6918C17.3994 12.5999 17.2156 12.5693 17.0318 12.5386L15.8677 12.4774L22.2087 18.0525L16.3885 20.932C16.2047 21.0239 15.9903 21.0545 15.8065 20.9933L13.0495 19.7067L12.2531 19.5229L14.6731 22.3411C14.7037 22.3717 14.7037 22.4024 14.7343 22.4024L15.7146 25.8332L16.1128 25.0062L16.6642 22.4943C16.6948 22.3411 16.8174 22.2186 16.9705 22.1573L23.6178 19.8905L24.5062 27.4874L25.272 26.7829C25.3639 26.6297 25.4252 26.4459 25.4558 26.2621L26.1297 21.1771L27.4469 21.1158C27.8452 21.0852 28.1515 20.7482 28.1209 20.3806V20.35C28.0902 20.0437 27.8145 19.8292 27.5082 19.8292C27.4776 19.8292 27.4469 19.8292 27.4163 19.8599L26.2829 20.1355L26.4361 18.9409L28.5497 18.2057C28.8867 18.1138 29.2236 17.9913 29.53 17.8687C31.3679 17.1029 32.6239 15.8163 32.2869 15.0505C31.95 14.2847 30.2039 14.2847 28.3353 15.0505Z" fill="#0FB8D3"/>
<path d="M63.4405 29.8154C63.6243 29.8154 63.7775 29.8461 63.9306 29.938C64.0838 29.9992 64.1757 30.0911 64.2063 30.183V30.2136V30.2443V33.3995C64.2063 33.4301 64.2063 33.4301 64.2063 33.4607C64.2063 33.4914 64.2063 33.4914 64.1757 33.522C64.1451 33.5833 64.0532 33.6445 63.9613 33.7058C63.8694 33.767 63.6856 33.7977 63.4711 33.7977H63.3486H62.4909C62.2765 33.7977 62.1233 33.767 62.0008 33.7058C61.8782 33.6445 61.817 33.5833 61.7863 33.522C61.7863 33.4914 61.7557 33.4914 61.7557 33.4607C61.7557 33.4301 61.7557 33.4301 61.7557 33.3995V30.2136V30.183V30.1524C61.7863 30.0605 61.8782 29.9992 62.0314 29.9073C62.1846 29.8461 62.3377 29.7848 62.5215 29.7848H62.6441H63.4405V29.8154ZM63.0729 30.2749C63.0423 30.2749 63.0116 30.2443 62.9504 30.2443C62.9197 30.2443 62.8891 30.2443 62.8585 30.2749C62.8278 30.2749 62.7972 30.3055 62.7972 30.3362V33.2463C62.7972 33.2769 62.7972 33.3076 62.8279 33.3076C62.8585 33.3076 62.8891 33.3382 62.9197 33.3382C62.9504 33.3382 63.0116 33.3076 63.0423 33.3076C63.0729 33.3076 63.1035 33.2769 63.1035 33.2463V30.3362C63.1035 30.3055 63.1035 30.2749 63.0729 30.2749Z" fill="#0FB8D3"/>
<path d="M66.8407 31.5615V29.846H66.9632H67.8209V33.7364H67.6984H66.7181L66.1974 31.8678V33.7364H66.0749H65.2171V29.846H65.3397H66.3199L66.8407 31.5615Z" fill="#0FB8D3"/>
<path d="M69.8734 33.3382H70.486V33.7364H70.3635H68.7706V29.846H68.8931H69.8734V33.3382Z" fill="#0FB8D3"/>
<path d="M72.4159 29.846V33.7364H72.2934H71.3131V29.846H71.4356H72.4159Z" fill="#0FB8D3"/>
<path d="M75.0504 31.5615V29.846H75.1729H76.0306V33.7364H75.9081H74.9278L74.4071 31.8678V33.7364H74.2845H73.4268V29.846H73.5494H74.5296L75.0504 31.5615Z" fill="#0FB8D3"/>
<path d="M78.6956 31.3777V31.7759H78.0829V33.3076H78.6956V33.7058H78.5731H76.9802V29.8461H77.1027H78.6956V30.2443H78.0829V31.3777H78.6956Z" fill="#0FB8D3"/>
<path d="M83.7806 29.846H83.9031H85.5267C85.7411 29.846 85.9249 29.8767 86.0781 29.9379C86.2312 29.9992 86.2925 30.0911 86.2925 30.2136V31.0101C86.2925 31.1326 86.2619 31.2245 86.2312 31.347C86.17 31.4389 86.0474 31.5308 85.8636 31.6227C85.8943 31.6227 85.9249 31.6227 85.9249 31.6534C85.9555 31.6534 85.9862 31.684 85.9862 31.684C86.0168 31.7146 86.0781 31.7453 86.1087 31.7759C86.1393 31.8065 86.17 31.8372 86.2006 31.8678C86.2312 31.8984 86.2312 31.8984 86.2619 31.929C86.2619 31.9597 86.2925 31.9597 86.2925 31.9903V33.3382C86.2925 33.4607 86.2312 33.5526 86.0781 33.6445C85.9249 33.7364 85.7717 33.767 85.5267 33.767H85.4041H83.75V29.846H83.7806ZM85.0672 30.2749C85.0059 30.2749 84.9446 30.2442 84.8528 30.2442V31.3777C84.8528 31.3777 84.8528 31.3777 84.8834 31.3777C84.8834 31.3777 84.8834 31.3777 84.914 31.3777C84.9753 31.3777 85.0365 31.3777 85.0978 31.347C85.1591 31.347 85.1897 31.3164 85.1897 31.3164V30.3361C85.1897 30.3055 85.1591 30.3055 85.0672 30.2749ZM84.914 33.3382C84.9447 33.3382 84.9446 33.3382 84.9753 33.3382C85.0365 33.3382 85.0978 33.3382 85.1284 33.3075C85.1591 33.3075 85.1897 33.2769 85.1897 33.2769V31.929C85.1897 31.8984 85.1591 31.8984 85.0978 31.8984C85.0365 31.8984 84.9753 31.8984 84.8528 31.8678V33.3382C84.8834 33.3382 84.8834 33.3382 84.914 33.3382Z" fill="#0FB8D3"/>
<path d="M88.9882 29.8154C89.172 29.8154 89.3252 29.8461 89.4783 29.938C89.6315 29.9992 89.7234 30.0911 89.754 30.183V30.2136V30.2443V33.3995C89.754 33.4301 89.754 33.4301 89.754 33.4607C89.754 33.4914 89.754 33.4914 89.7234 33.522C89.6928 33.5833 89.6009 33.6445 89.509 33.7058C89.4171 33.7671 89.2333 33.7977 89.0188 33.7977H88.8963H88.008C87.7935 33.7977 87.6097 33.7671 87.5178 33.7058C87.3953 33.6445 87.334 33.5833 87.3034 33.522C87.3034 33.4914 87.2728 33.4914 87.2728 33.4607C87.2728 33.4301 87.2728 33.4301 87.2728 33.3995V30.2136V30.183V30.1524C87.3034 30.0605 87.3953 29.9992 87.5485 29.9073C87.7016 29.8461 87.8548 29.7848 88.0386 29.7848H88.1611H88.9882V29.8154ZM88.6206 30.2749C88.59 30.2749 88.5593 30.2443 88.4981 30.2443C88.4674 30.2443 88.4368 30.2443 88.4062 30.2749C88.3755 30.2749 88.3449 30.3055 88.3449 30.3362V33.2463C88.3449 33.2769 88.3449 33.3076 88.3755 33.3076C88.4062 33.3076 88.4368 33.3382 88.4674 33.3382C88.4981 33.3382 88.5593 33.3076 88.59 33.3076C88.6206 33.3076 88.6512 33.2769 88.6512 33.2463V30.3362C88.6512 30.3055 88.6512 30.2749 88.6206 30.2749Z" fill="#0FB8D3"/>
<path d="M92.4496 29.8154C92.6334 29.8154 92.7866 29.8461 92.9397 29.938C93.0929 29.9992 93.1848 30.0911 93.2154 30.183V30.2136V30.2443V33.3995C93.2154 33.4301 93.2154 33.4301 93.2154 33.4607C93.2154 33.4914 93.2154 33.4914 93.1848 33.522C93.1542 33.5833 93.0623 33.6445 92.9704 33.7058C92.8785 33.7671 92.6947 33.7977 92.4802 33.7977H92.3577H91.4694C91.2549 33.7977 91.0711 33.7671 90.9792 33.7058C90.8567 33.6445 90.7954 33.5833 90.7648 33.522C90.7648 33.4914 90.7342 33.4914 90.7342 33.4607C90.7342 33.4301 90.7342 33.4301 90.7342 33.3995V30.2136V30.183V30.1524C90.7648 30.0605 90.8567 29.9992 91.0099 29.9073C91.163 29.8461 91.3162 29.7848 91.5 29.7848H91.6225H92.4496V29.8154ZM92.082 30.2749C92.0514 30.2749 92.0208 30.2443 91.9595 30.2443C91.9289 30.2443 91.8982 30.2443 91.8676 30.2749C91.837 30.2749 91.8063 30.3055 91.8063 30.3362V33.2463C91.8063 33.2769 91.8063 33.3076 91.837 33.3076C91.8676 33.3076 91.8982 33.3382 91.9289 33.3382C91.9595 33.3382 92.0208 33.3076 92.0514 33.3076C92.082 33.3076 92.1127 33.2769 92.1127 33.2463V30.3362C92.1433 30.3055 92.1127 30.2749 92.082 30.2749Z" fill="#0FB8D3"/>
<path d="M95.2986 32.2048V33.7671H95.176H94.1958V29.8461H94.3183H95.2986V31.1327L95.6049 29.8461H95.7274H96.7077L96.1256 31.5922L96.7689 33.7364H96.6464H95.6661L95.2986 32.2048Z" fill="#0FB8D3"/>
<path d="M98.6682 29.8461V33.7364H98.5457H97.5654V29.8461H97.6879H98.6682Z" fill="#0FB8D3"/>
<path d="M101.272 31.5615V29.846H101.394H102.252V33.7364H102.13H101.149L100.629 31.8678V33.7364H100.506H99.6483V29.846H99.7709H100.751L101.272 31.5615Z" fill="#0FB8D3"/>
<path d="M104.887 33.7058C104.795 33.7364 104.703 33.7364 104.611 33.7364H104.58H104.55H104.427H103.937C103.937 33.7364 103.906 33.7364 103.876 33.7364C103.845 33.7364 103.845 33.7364 103.814 33.7364C103.661 33.7364 103.508 33.7058 103.386 33.6445C103.263 33.5833 103.202 33.522 103.202 33.4607V30.2136V30.183V30.1524C103.232 30.0605 103.324 29.9992 103.477 29.9073C103.631 29.8461 103.784 29.7848 103.968 29.7848H104.09H104.948C105.132 29.7848 105.285 29.8154 105.438 29.9073C105.591 29.9686 105.683 30.0605 105.714 30.1524V30.183V30.2136V31.1939H105.591H104.611V30.3362C104.611 30.3055 104.58 30.2749 104.55 30.2749C104.519 30.2749 104.488 30.2443 104.427 30.2443C104.396 30.2443 104.335 30.2443 104.305 30.2749C104.274 30.2749 104.243 30.3055 104.243 30.3362V33.2463C104.243 33.2769 104.274 33.3076 104.305 33.3076C104.335 33.3076 104.366 33.3382 104.396 33.3382C104.427 33.3382 104.488 33.3382 104.519 33.3076C104.55 33.2769 104.58 33.2769 104.58 33.2463V32.1435L104.366 32.0516V31.684H104.488H105.683V33.7364H105.561H105.193L105.04 33.6445C105.04 33.6752 104.978 33.7058 104.887 33.7058Z" fill="#0FB8D3"/>
<path d="M107.337 32.4192C107.693 32.4192 107.981 32.1312 107.981 31.7759C107.981 31.4206 107.693 31.1326 107.337 31.1326C106.982 31.1326 106.694 31.4206 106.694 31.7759C106.694 32.1312 106.982 32.4192 107.337 32.4192Z" fill="#0FB8D3"/>
<path d="M60.1321 32.4192C60.4874 32.4192 60.7754 32.1312 60.7754 31.7759C60.7754 31.4206 60.4874 31.1326 60.1321 31.1326C59.7768 31.1326 59.4888 31.4206 59.4888 31.7759C59.4888 32.1312 59.7768 32.4192 60.1321 32.4192Z" fill="#0FB8D3"/>
<path d="M117.967 28.3757H51.463V28.8046H117.967V28.3757Z" fill="#0FB8D3"/>
<path d="M117.63 34.4716H51.1261V34.9005H117.63V34.4716Z" fill="#0FB8D3"/>
</g>
<defs>
<clipPath id="clip0">
<rect width="123.243" height="38" fill="white"/>
</clipPath>
</defs>
</svg>
