<svg width="123" height="38" viewBox="0 0 123 38" fill="none" xmlns="http://www.w3.org/2000/svg">
<path fill-rule="evenodd" clip-rule="evenodd" d="M53.8218 7.4539H47.1745V8.74044H53.4538V10.5169H47.1745V11.8342H53.9135V13.8866H44.5706V5.37076H53.8218V7.4539ZM91.2028 32.2797C91.2028 31.9577 90.9414 31.6963 90.6194 31.6963C90.2973 31.6963 90.0362 31.9577 90.0362 32.2797C90.0362 32.6018 90.2973 32.8629 90.6194 32.8629C90.9414 32.8629 91.2028 32.6018 91.2028 32.2797ZM93.4468 31.3376H92.4789V30.7672H95.1147V31.3376H94.1467V33.7922H93.4465V31.3376H93.4468ZM97.8167 33.7922L97.2333 32.9497H97.1987H96.5894V33.7922H95.8892V30.7672H97.1987C97.4668 30.7672 97.6991 30.8117 97.8966 30.9011C98.0941 30.9903 98.2459 31.1169 98.3525 31.2816C98.4594 31.4457 98.5125 31.6402 98.5125 31.8647C98.5125 32.0895 98.4585 32.2832 98.3505 32.4458C98.2425 32.6088 98.0891 32.7334 97.8902 32.8199L98.5686 33.7922H97.8167ZM97.8036 31.8647C97.8036 31.6948 97.749 31.5644 97.6396 31.4738C97.5301 31.3832 97.37 31.3379 97.1601 31.3379H96.5897V32.3924H97.1601C97.3703 32.3924 97.5304 32.3462 97.6396 32.2542C97.749 32.1618 97.8036 32.0326 97.8036 31.8653V31.8647ZM101.456 33.1437H100.052L99.784 33.7919H99.0667L100.415 30.767H101.106L102.459 33.7919H101.724L101.456 33.1437H101.456ZM101.236 32.6122L100.757 31.4541L100.277 32.6122H101.236H101.236ZM105.947 30.767V33.7919H105.373L103.864 31.9553V33.7919H103.173V30.767H103.752L105.256 32.6035V30.767H105.947ZM108.057 33.8436C107.818 33.8436 107.587 33.8111 107.364 33.7463C107.14 33.6816 106.961 33.5973 106.825 33.4937L107.063 32.9663C107.192 33.0615 107.347 33.1379 107.526 33.1954C107.704 33.2529 107.883 33.2817 108.061 33.2817C108.26 33.2817 108.407 33.252 108.502 33.1931C108.597 33.1341 108.645 33.0557 108.645 32.9578C108.645 32.8858 108.617 32.826 108.56 32.7784C108.504 32.731 108.432 32.6927 108.345 32.6637C108.257 32.6349 108.138 32.6032 107.988 32.5687C107.758 32.5141 107.569 32.4592 107.422 32.4043C107.275 32.3497 107.149 32.262 107.044 32.1409C106.939 32.0198 106.886 31.8583 106.886 31.6571C106.886 31.4811 106.933 31.3222 107.029 31.1796C107.124 31.037 107.267 30.9238 107.458 30.8404C107.65 30.7568 107.884 30.715 108.161 30.715C108.354 30.715 108.543 30.7379 108.727 30.7841C108.911 30.83 109.073 30.8965 109.211 30.9827L108.995 31.5145C108.715 31.3559 108.436 31.2769 108.156 31.2769C107.961 31.2769 107.816 31.3086 107.722 31.3719C107.629 31.4352 107.582 31.5188 107.582 31.6225C107.582 31.7262 107.636 31.8034 107.744 31.8537C107.852 31.9039 108.017 31.9539 108.239 32.0027C108.469 32.0573 108.658 32.1122 108.805 32.1668C108.952 32.2214 109.078 32.3079 109.183 32.4261C109.288 32.5443 109.34 32.7043 109.34 32.9056C109.34 33.0787 109.292 33.2361 109.196 33.3789C109.099 33.5215 108.955 33.6348 108.762 33.7182C108.568 33.8018 108.334 33.8436 108.057 33.8436ZM110.919 31.3286V32.1281H112.319V32.6898H110.919V33.7916H110.219V30.7667H112.504V31.3283H110.918L110.919 31.3286ZM115.72 33.23V33.7916H113.378V30.7667H115.664V31.3283H114.074V31.985H115.478V32.5295H114.074V33.2297H115.72L115.72 33.23ZM118.604 33.7916L118.021 32.9491H117.986H117.377V33.7916H116.677V30.7667H117.986C118.254 30.7667 118.486 30.8111 118.684 30.9005C118.881 30.9897 119.033 31.1163 119.14 31.281C119.247 31.4451 119.3 31.6396 119.3 31.8641C119.3 32.0889 119.246 32.2826 119.138 32.4453C119.03 32.6082 118.876 32.7328 118.677 32.8193L119.356 33.7916H118.604ZM118.591 31.8641C118.591 31.6942 118.536 31.5639 118.427 31.4732C118.317 31.3826 118.157 31.3373 117.947 31.3373H117.377V32.3918H117.947C118.158 32.3918 118.318 32.3456 118.427 32.2536C118.536 32.1612 118.591 32.032 118.591 31.8647V31.8641ZM121.245 33.8433C121.006 33.8433 120.775 33.8108 120.552 33.746C120.328 33.6813 120.149 33.597 120.014 33.4934L120.251 32.966C120.381 33.0612 120.535 33.1376 120.714 33.1951C120.892 33.2526 121.071 33.2814 121.25 33.2814C121.449 33.2814 121.595 33.2517 121.691 33.1928C121.786 33.1338 121.833 33.0554 121.833 32.9576C121.833 32.8855 121.805 32.8257 121.749 32.7781C121.693 32.7307 121.621 32.6924 121.533 32.6634C121.445 32.6346 121.326 32.603 121.176 32.5684C120.946 32.5138 120.757 32.4589 120.61 32.404C120.464 32.3494 120.337 32.2617 120.232 32.1406C120.127 32.0195 120.074 31.858 120.074 31.6568C120.074 31.4808 120.122 31.3219 120.217 31.1793C120.312 31.0367 120.455 30.9235 120.647 30.8401C120.838 30.7565 121.073 30.7147 121.349 30.7147C121.542 30.7147 121.731 30.7376 121.915 30.7838C122.099 30.8297 122.261 30.8962 122.399 30.9824L122.183 31.5142C121.903 31.3556 121.624 31.2766 121.345 31.2766C121.149 31.2766 121.004 31.3083 120.91 31.3716C120.817 31.4349 120.77 31.5185 120.77 31.6222C120.77 31.7259 120.824 31.8032 120.932 31.8534C121.04 31.9036 121.205 31.9536 121.427 32.0024C121.657 32.057 121.846 32.1119 121.993 32.1665C122.14 32.2211 122.266 32.3076 122.371 32.4258C122.476 32.544 122.529 32.704 122.529 32.9053C122.529 33.0784 122.481 33.2358 122.384 33.3787C122.288 33.5212 122.143 33.6345 121.95 33.7179C121.757 33.8015 121.522 33.8433 121.245 33.8433ZM71.9994 30.7667V33.7916H71.2995V32.5513H69.9253V33.7916H69.2251V30.7667H69.9253V31.9594H71.2995V30.7667H71.9994ZM74.58 33.8433C74.2664 33.8433 73.9832 33.7757 73.7312 33.64C73.4791 33.505 73.2816 33.3182 73.139 33.0804C72.9967 32.8428 72.925 32.5757 72.925 32.2786C72.925 31.9818 72.9964 31.7149 73.139 31.477C73.2816 31.2395 73.4791 31.0527 73.7312 30.9174C73.9832 30.7821 74.2664 30.7141 74.58 30.7141C74.894 30.7141 75.1765 30.7818 75.4272 30.9174C75.6778 31.0524 75.875 31.2392 76.019 31.477C76.1631 31.7146 76.2351 31.9818 76.2351 32.2786C76.2351 32.5757 76.1631 32.8425 76.019 33.0804C75.875 33.318 75.6778 33.5047 75.4272 33.64C75.1765 33.7754 74.894 33.8433 74.58 33.8433ZM74.58 33.2471C74.7589 33.2471 74.9201 33.2059 75.0642 33.1237C75.2079 33.0418 75.3212 32.9271 75.4034 32.7801C75.4853 32.6334 75.5265 32.4662 75.5265 32.2789C75.5265 32.0918 75.4853 31.9245 75.4034 31.7779C75.3212 31.6309 75.2079 31.5162 75.0642 31.4343C74.9201 31.3521 74.7589 31.3109 74.58 31.3109C74.4014 31.3109 74.2402 31.3521 74.0962 31.4343C73.9525 31.5162 73.8392 31.6309 73.757 31.7779C73.6751 31.9245 73.6339 32.0918 73.6339 32.2789C73.6339 32.4662 73.6751 32.6334 73.757 32.7801C73.8392 32.9271 73.9525 33.0418 74.0962 33.1237C74.2402 33.2059 74.4014 33.2471 74.58 33.2471ZM77.7444 31.337H76.7764V30.7667H79.4122V31.337H78.4443V33.7916H77.7441V31.337H77.7444ZM82.5293 33.2297V33.7913H80.1871V30.7664H82.4729V31.328H80.8826V31.9847H82.2871V32.5292H80.8826V33.2294H82.529L82.5293 33.2297ZM83.4853 30.7667H84.1855V33.2212H85.702V33.7916H83.4853V30.7667ZM87.4707 33.8433C87.2317 33.8433 87.0002 33.8108 86.7772 33.746C86.5538 33.6813 86.3747 33.597 86.239 33.4934L86.4766 32.966C86.6061 33.0612 86.7606 33.1376 86.9392 33.1951C87.1178 33.2526 87.2964 33.2814 87.475 33.2814C87.674 33.2814 87.8206 33.2517 87.9159 33.1928C88.0108 33.1338 88.0585 33.0554 88.0585 32.9576C88.0585 32.8855 88.0303 32.8257 87.974 32.7781C87.9179 32.7307 87.8459 32.6924 87.7582 32.6634C87.6702 32.6346 87.5514 32.603 87.4016 32.5684C87.1713 32.5138 86.9825 32.4589 86.8355 32.404C86.6889 32.3494 86.5626 32.2617 86.4574 32.1406C86.3523 32.0195 86.2997 31.858 86.2997 31.6568C86.2997 31.4808 86.3471 31.3219 86.4423 31.1793C86.5373 31.0367 86.6805 30.9235 86.8721 30.8401C87.0638 30.7565 87.2979 30.7147 87.5744 30.7147C87.7675 30.7147 87.9563 30.7376 88.1404 30.7838C88.3248 30.8297 88.4863 30.8962 88.6242 30.9824L88.4084 31.5142C88.1288 31.3556 87.8494 31.2766 87.57 31.2766C87.3743 31.2766 87.2293 31.3083 87.1358 31.3716C87.0423 31.4349 86.9956 31.5185 86.9956 31.6222C86.9956 31.7259 87.0493 31.8032 87.1576 31.8534C87.2656 31.9036 87.4306 31.9536 87.6522 32.0024C87.8825 32.057 88.0713 32.1119 88.2182 32.1665C88.3652 32.2211 88.4912 32.3076 88.5963 32.4258C88.7017 32.544 88.754 32.704 88.754 32.9053C88.754 33.0784 88.7061 33.2358 88.6094 33.3787C88.513 33.5212 88.3683 33.6345 88.1752 33.7179C87.9821 33.8015 87.7474 33.8433 87.4707 33.8433ZM45.2708 31.3283V32.1278H46.6709V32.6895H45.2708V33.7913H44.5706V30.7664H46.8565V31.328H45.2705L45.2708 31.3283ZM47.7303 30.7667H48.4305V33.2212H49.947V33.7916H47.7303V30.7667ZM50.739 30.7667H51.4392V33.7916H50.739V30.7667ZM54.5989 32.2315H55.2387V33.4588C55.0743 33.5828 54.8841 33.6778 54.6683 33.7443C54.4523 33.8105 54.2347 33.8436 54.016 33.8436C53.7021 33.8436 53.4195 33.7768 53.1689 33.6426C52.9183 33.5088 52.7217 33.3229 52.5791 33.085C52.4368 32.8475 52.365 32.5788 52.365 32.2789C52.365 31.9791 52.4365 31.7108 52.5791 31.473C52.7217 31.2354 52.9197 31.0495 53.1733 30.9154C53.4268 30.7815 53.712 30.7144 54.0288 30.7144C54.294 30.7144 54.5344 30.7588 54.7508 30.8483C54.9666 30.9374 55.1481 31.067 55.2953 31.2368L54.8458 31.6518C54.63 31.4242 54.3692 31.3103 54.0637 31.3103C53.8705 31.3103 53.6992 31.351 53.5494 31.4314C53.3998 31.5122 53.2827 31.626 53.1994 31.773C53.1158 31.9196 53.0739 32.0883 53.0739 32.2783C53.0739 32.4656 53.1158 32.6329 53.1994 32.7795C53.2827 32.9265 53.3989 33.0412 53.5473 33.1231C53.6954 33.2053 53.8647 33.2465 54.055 33.2465C54.2568 33.2465 54.4383 33.2035 54.5995 33.117V32.2309L54.5989 32.2315ZM59.0594 30.7667V33.7916H58.3595V32.5513H56.9853V33.7916H56.2851V30.7667H56.9853V31.9594H58.3595V30.7667H59.0594ZM60.8019 31.337H59.8339V30.7667H62.4697V31.337H61.5018V33.7916H60.8016V31.337H60.8019ZM64.2166 33.8433C63.9776 33.8433 63.7461 33.8108 63.5231 33.746C63.2997 33.6813 63.1206 33.597 62.9849 33.4934L63.2225 32.966C63.352 33.0612 63.5065 33.1376 63.6851 33.1951C63.8637 33.2526 64.0423 33.2814 64.2209 33.2814C64.4199 33.2814 64.5665 33.2517 64.6618 33.1928C64.7568 33.1338 64.8044 33.0554 64.8044 32.9576C64.8044 32.8855 64.7762 32.8257 64.7199 32.7781C64.6638 32.7307 64.5918 32.6924 64.5041 32.6634C64.4161 32.6346 64.2973 32.603 64.1475 32.5684C63.9172 32.5138 63.7284 32.4589 63.5814 32.404C63.4348 32.3494 63.3085 32.2617 63.2033 32.1406C63.0982 32.0195 63.0456 31.858 63.0456 31.6568C63.0456 31.4808 63.093 31.3219 63.1882 31.1793C63.2832 31.0367 63.4264 30.9235 63.618 30.8401C63.8097 30.7565 64.0438 30.7147 64.3203 30.7147C64.5134 30.7147 64.7022 30.7376 64.8863 30.7838C65.0707 30.8297 65.2322 30.8962 65.3701 30.9824L65.1543 31.5142C64.8747 31.3556 64.5953 31.2766 64.3159 31.2766C64.1202 31.2766 63.9752 31.3083 63.8817 31.3716C63.7882 31.4349 63.7415 31.5185 63.7415 31.6222C63.7415 31.7259 63.7952 31.8032 63.9035 31.8534C64.0115 31.9036 64.1765 31.9536 64.3981 32.0024C64.6284 32.057 64.8172 32.1119 64.9641 32.1665C65.1111 32.2211 65.2371 32.3076 65.3422 32.4258C65.4476 32.544 65.4999 32.704 65.4999 32.9053C65.4999 33.0784 65.452 33.2358 65.3553 33.3787C65.2589 33.5212 65.1143 33.6345 64.9211 33.7179C64.728 33.8015 64.4933 33.8433 64.2166 33.8433ZM67.9281 32.2791C67.9281 31.9571 67.667 31.6957 67.3449 31.6957C67.0229 31.6957 66.7618 31.9571 66.7618 32.2791C66.7618 32.6012 67.0229 32.8623 67.3449 32.8623C67.667 32.8623 67.9281 32.6012 67.9281 32.2791ZM28.335 15.05C28.2432 15.0808 28.1819 15.1113 28.1203 15.1421C27.9673 15.203 27.8447 15.2646 27.6917 15.3567L25.2104 16.5819L23.8013 15.8774L24.8119 15.2646C25.0878 15.1116 25.1488 14.7747 24.9958 14.4988C24.965 14.468 24.965 14.4375 24.9348 14.4375C24.6897 14.1314 24.2299 14.1006 23.9543 14.3457L23.9236 14.3765L22.8208 15.3872L17.5829 12.6915C17.3991 12.5995 17.2153 12.5687 17.0314 12.5385L15.8674 12.4772L22.2084 18.0523L16.3882 20.9318C16.2043 21.0235 15.99 21.0543 15.8065 20.993L13.0493 19.7065L12.2529 19.5227L14.673 22.3409C14.7035 22.3714 14.7035 22.4018 14.734 22.4018L15.7144 25.8328L16.1126 25.0057L16.6641 22.4939C16.6948 22.3406 16.8171 22.218 16.9701 22.1567L23.6175 19.89L24.5058 27.487L25.2717 26.7822C25.3634 26.6291 25.4247 26.4453 25.4555 26.2615L26.1293 21.1766L27.4466 21.1153C27.8447 21.0845 28.1511 20.7476 28.1206 20.3803V20.3495C28.0898 20.0434 27.8142 19.8288 27.5079 19.8288C27.4771 19.8288 27.4466 19.8288 27.4158 19.8596L26.2823 20.1354L26.4356 18.9407L28.549 18.2056C28.8859 18.1139 29.223 17.991 29.5294 17.8688C31.3675 17.1029 32.6232 15.8164 32.2863 15.0506C31.9495 14.285 30.2032 14.2847 28.3347 15.0506L28.335 15.05ZM12.0386 19.737C11.9468 19.6449 11.9468 19.4919 12.0078 19.4001C12.0691 19.3081 12.1609 19.2468 12.2529 19.2468H12.3142L13.141 19.4001C13.141 19.4001 13.1718 19.4001 13.2023 19.4001C14.9788 18.3584 16.8781 17.5316 18.8079 16.9188L17.7665 15.6936C13.8761 17.1026 9.34269 19.8288 5.85045 22.9838C2.69539 25.8328 1.80701 27.5788 -0.000244141 31.2853C2.23566 27.8849 4.77824 25.0362 7.81075 22.8616C8.94424 22.065 10.5369 20.993 12.2524 19.9821L12.0377 19.737H12.0386ZM12.7432 23.2905C10.6603 24.3932 8.69971 25.7102 6.86168 27.2114C5.9733 27.9464 5.17698 28.7431 4.41116 29.6006C3.64533 30.4277 3.03256 31.3774 2.54263 32.4188C2.32801 32.9088 2.14447 33.4295 2.0829 33.981C2.05212 34.2569 2.05212 34.502 2.0829 34.7776C2.11369 35.0227 2.20575 35.2675 2.29752 35.5126C2.54263 36.0026 2.91029 36.3702 3.36973 36.6461C3.85995 36.9217 4.35017 37.136 4.90138 37.2894C6.03487 37.5653 7.19885 37.7183 8.36283 37.7796C9.52682 37.8104 10.7216 37.8104 11.8856 37.7488C10.7216 37.8714 9.52682 37.9634 8.36283 37.9939C7.16836 38.0244 6.00408 37.9326 4.8401 37.718C4.2584 37.5955 3.67612 37.4119 3.12491 37.136C2.23653 36.7074 1.62376 35.8803 1.44021 34.9306C1.37894 34.6245 1.37894 34.2874 1.37894 33.9813C1.40972 33.3685 1.56277 32.7557 1.80788 32.1737C2.26761 31.0405 2.88009 29.9988 3.64591 29.0187C4.38095 28.0693 5.20835 27.1806 6.06594 26.3538C7.75064 24.7609 9.61917 23.3213 11.6105 22.1265L12.7437 23.2905H12.7432ZM13.8459 25.4654C12.3447 26.231 10.9359 27.1498 9.5878 28.1611C8.91404 28.651 8.27048 29.2025 7.658 29.7845C7.04522 30.3665 6.52451 31.01 6.09556 31.7146C5.88095 32.0515 5.7279 32.4496 5.63613 32.8481C5.54407 33.2157 5.51328 33.6136 5.57485 33.9813C5.63613 34.1651 5.6977 34.3492 5.78947 34.5023L5.94252 34.7471L6.12635 34.9922C6.37146 35.2983 6.70834 35.5437 7.04522 35.758C7.41289 35.9724 7.81104 36.0949 8.2092 36.1867L8.5153 36.248L8.82169 36.3092C9.03601 36.3397 9.25034 36.3702 9.46496 36.401C10.3226 36.4928 11.1804 36.5236 12.0688 36.4928C11.2109 36.5848 10.3226 36.6461 9.43446 36.6156C9.21985 36.6156 8.97503 36.6156 8.79119 36.5848L8.45431 36.5541L8.11743 36.4931C7.6577 36.4318 7.22876 36.2784 6.8306 36.0949C6.40195 35.9111 6.03429 35.6352 5.6974 35.3291L5.45229 35.0532L5.26846 34.7471C5.14562 34.5325 5.05385 34.3181 4.96237 34.1038C4.80903 33.6441 4.80903 33.1542 4.90109 32.6642C4.99286 32.2045 5.1462 31.7451 5.36081 31.3164C5.75868 30.4893 6.27969 29.754 6.89217 29.0494C7.47416 28.3757 8.11772 27.7321 8.79148 27.1501C10.1698 25.9557 11.6709 24.8834 13.2026 23.9338L13.8459 25.4654ZM25.9457 4.17599C33.3588 5.95246 37.923 13.3653 36.1465 20.7784C34.3698 28.1916 26.9569 32.7557 19.5438 30.9792C16.9399 30.3665 14.5815 28.9879 12.7435 27.0581C12.6825 27.0889 12.6209 27.1193 12.5596 27.1498C17.2466 33.7054 26.3749 35.237 32.9302 30.5503C39.4857 25.8636 41.0171 16.735 36.3307 10.1797C33.9106 6.81005 30.1123 4.60464 25.946 4.17599H25.9457ZM22.4538 4.84975C15.255 4.84975 9.40426 10.7004 9.40426 17.8993C9.40426 18.2974 9.40426 18.6648 9.46554 19.0327C10.0783 18.6346 10.6908 18.2361 11.3341 17.838C12.8349 10.7925 19.7886 6.28963 26.8338 7.82128C29.8053 8.46455 32.4705 10.1185 34.3387 12.508C32.2253 7.82128 27.5691 4.85004 22.4535 4.85004L22.4538 4.84975ZM23.4034 34.7776C18.3795 34.7776 13.6623 32.4496 10.5993 28.4672C10.446 28.59 10.2624 28.7123 10.0786 28.8348C9.43504 29.325 8.82285 29.8458 8.24057 30.3973C7.93418 30.7034 7.68907 30.9792 7.44396 31.2856C14.5507 38.5759 26.1911 38.7295 33.4814 31.6225C34.278 30.8567 34.9826 30.0296 35.595 29.1415C32.5622 32.7252 28.0901 34.7779 23.4031 34.7779L23.4034 34.7776ZM5.23855 22.3409C5.91231 21.7281 6.61686 21.1153 7.38268 20.5333C7.3217 19.9208 7.29091 19.2776 7.29091 18.6343C7.29091 9.72001 14.5199 2.5215 23.4342 2.5215C29.0398 2.5215 34.2475 5.46224 37.188 10.2407C32.6546 1.14319 21.5962 -2.59416 12.4678 1.90901C4.16634 6.01374 0.214663 15.6015 3.18619 24.3627C3.76818 23.7192 4.44194 23.0762 5.23855 22.3409ZM119.926 20.993C119.957 20.6562 119.834 20.3495 119.589 20.1659C119.375 20.0129 118.854 19.9516 118.058 19.9516H116.618C115.76 19.9516 115.24 20.0434 114.995 20.2577C114.75 20.4723 114.627 20.901 114.627 21.6055V22.7695C114.627 23.3823 114.75 23.8109 115.025 24.0253C115.301 24.2399 115.822 24.3621 116.618 24.3621L118.058 24.3624C118.548 24.3929 119.068 24.3316 119.528 24.1478C119.804 24.025 119.957 23.7497 119.926 23.4433L119.895 23.2287V23.1979H117.016V21.5132H122.53V24.3009C122.53 25.0975 122.254 25.6487 121.672 25.9856C121.09 26.3224 120.11 26.5063 118.731 26.5063H115.974C115.331 26.5371 114.719 26.4755 114.106 26.3532C113.738 26.2612 113.371 26.1081 113.064 25.863C112.727 25.6182 112.482 25.2505 112.36 24.8829C112.207 24.3926 112.115 23.9024 112.145 23.3817V21.0842C112.145 19.8898 112.421 19.0322 112.972 18.5417C113.524 18.0517 114.534 17.8066 115.974 17.8066H118.731C119.191 17.8066 119.589 17.8066 119.895 17.8374C120.171 17.8374 120.446 17.8987 120.691 17.9295C121.059 17.9904 121.396 18.1133 121.702 18.3581C121.947 18.5727 122.162 18.8788 122.254 19.1852C122.376 19.6139 122.438 20.0428 122.438 20.4717V20.7474V20.9312L119.926 20.9925L119.926 20.993ZM110.154 26.4148H106.509L101.638 20.2577V26.4148H99.1573V17.9297H102.833L107.673 24.1481V17.9297H110.154V26.4148H110.154ZM96.9211 26.4148H94.4398V17.9297H96.9211V26.4148ZM84.8825 21.0848H85.9242L89.1711 17.93H92.4795L88.0991 22.1265L93.0615 26.4148H89.6L85.9242 23.2292H84.8825V26.4148H82.4015V17.9297H84.8825V21.0845V21.0848ZM73.457 26.5069C72.7522 26.5376 72.0476 26.4761 71.3738 26.384C70.9757 26.323 70.6388 26.1697 70.3016 25.9246C69.9953 25.6795 69.7501 25.3426 69.6276 24.9749C69.4745 24.485 69.4133 23.9335 69.4133 23.4128V21.1153C69.3825 20.5333 69.4743 19.9818 69.6276 19.4306C69.7504 19.0325 69.9953 18.6956 70.3016 18.4505C70.6385 18.2053 71.0062 18.0523 71.4043 17.9907C72.0781 17.8682 72.7827 17.8377 73.4567 17.8377H76.3667C77.0712 17.8069 77.745 17.8685 78.4495 17.9605C78.8477 18.0215 79.2153 18.1749 79.5522 18.42C79.8586 18.6651 80.1037 19.002 80.2263 19.4004C80.3793 19.9211 80.4409 20.4418 80.4409 20.9933V23.3521C80.4409 23.8728 80.3796 24.4243 80.2263 24.9453C80.1034 25.3432 79.8894 25.68 79.5522 25.9254C79.2461 26.1706 78.8477 26.3236 78.48 26.3852C77.8063 26.4769 77.1017 26.5382 76.3972 26.5077H73.4564L73.457 26.5069ZM74.1308 24.3932H75.6929C76.5508 24.3932 77.1325 24.2707 77.4392 24.0563C77.7453 23.842 77.8678 23.4131 77.8678 22.7698V21.5753C77.8678 20.9625 77.7148 20.5339 77.4392 20.2888C77.1633 20.0437 76.5813 19.9211 75.6929 19.9519H74.1C73.2116 19.9519 72.6296 20.0745 72.3235 20.2888C72.0171 20.5031 71.8946 20.9625 71.8946 21.6061V22.7701C71.8946 23.3829 72.0476 23.8115 72.3235 24.0258C72.6604 24.271 73.2424 24.3935 74.1308 24.3935V24.3932ZM60.6523 26.5069C59.9478 26.5376 59.2432 26.4761 58.5695 26.384C58.1713 26.323 57.8344 26.1697 57.497 25.9246C57.1909 25.6795 56.9455 25.3426 56.8232 24.9749C56.6702 24.485 56.6086 23.9335 56.6086 23.4128V21.1153C56.5778 20.5333 56.6699 19.9818 56.8232 19.4306C56.9458 19.0325 57.1909 18.6956 57.497 18.4505C57.8338 18.2358 58.2018 18.0523 58.5695 17.9907C59.2432 17.8682 59.9478 17.8377 60.6523 17.8377H63.5623C64.2671 17.8069 64.9409 17.8685 65.6454 17.9605C66.0436 18.0215 66.4112 18.1749 66.7481 18.42C67.0542 18.6651 67.2996 19.002 67.4219 19.4004C67.5752 19.9211 67.6365 20.4418 67.6365 20.9933V23.3521C67.6365 23.8728 67.5755 24.4243 67.4219 24.9453C67.2993 25.3432 67.085 25.68 66.7481 25.9254C66.442 26.1706 66.0436 26.3236 65.6454 26.3852C64.9717 26.4769 64.2671 26.5382 63.5623 26.5077H60.6523V26.5069ZM61.3264 24.3932H62.8885C63.7464 24.3932 64.3281 24.2707 64.6348 24.0563C64.9409 23.842 65.0634 23.4131 65.0634 22.7698V21.5753C65.0634 20.9625 64.9104 20.5339 64.6348 20.2888C64.3589 20.0437 63.7769 19.9211 62.8885 19.9519H61.2956C60.4072 19.9519 59.8252 20.0745 59.5493 20.2888C59.2737 20.5336 59.1207 20.9625 59.1207 21.6061V22.7701C59.1207 23.3829 59.2737 23.8115 59.5493 24.0258C59.8252 24.2405 60.4682 24.3935 61.3261 24.3935L61.3264 24.3932ZM52.259 26.4151H44.5703V17.93H51.8914C52.8102 17.93 53.4843 18.1139 53.9132 18.5117C54.3422 18.9099 54.587 19.4922 54.587 20.2885C54.6483 21.0848 54.1584 21.8201 53.3925 22.065C53.8215 22.0957 54.2501 22.3409 54.526 22.6777C54.8016 23.1067 54.9242 23.5966 54.8937 24.0868C54.8937 24.8834 54.6791 25.4654 54.2809 25.8331C53.8828 26.2008 53.1782 26.4148 52.259 26.4148V26.4151ZM51.4014 21.2384C51.5853 21.2384 51.7383 21.1772 51.8914 21.0546C52.0139 20.9013 52.0752 20.7177 52.0444 20.5339C52.0444 20.3498 51.9834 20.1659 51.8606 20.0437C51.738 19.9211 51.585 19.8291 51.4012 19.8291H47.051V21.2384H51.4012H51.4014ZM51.6158 24.4853C51.7999 24.4853 51.9837 24.424 52.106 24.2707C52.2285 24.1176 52.2898 23.903 52.2898 23.6887C52.2898 23.5048 52.2285 23.2908 52.106 23.1375C51.9831 23.0146 51.7999 22.9228 51.6158 22.9228L47.0211 22.9226V24.4542L51.6158 24.485V24.4853ZM87.5171 13.8558H84.9441V10.7925L80.2574 5.37076H83.4429L86.2306 8.74044L89.1406 5.37076H92.2039L87.5169 10.7925V13.8558H87.5171ZM68.6169 11.0376H71.1595V11.1907C71.1287 11.4358 71.2208 11.6809 71.4046 11.8342C71.7107 11.9873 72.0479 12.0181 72.3848 11.9873H75.6319C75.8767 12.0181 76.1218 11.9565 76.3057 11.8342C76.4587 11.7114 76.5203 11.4973 76.5203 11.2827C76.5511 11.0681 76.459 10.8538 76.2752 10.7312C76.1526 10.67 76.0304 10.6084 75.877 10.5782C75.6627 10.5474 75.4484 10.5169 75.2645 10.5169L71.1903 10.4251C70.7614 10.4251 70.3327 10.3944 69.9346 10.2718C69.6285 10.2108 69.3526 10.0572 69.1379 9.84315C68.7703 9.47548 68.6172 8.83221 68.6172 7.91305C68.6172 7.51489 68.648 7.11673 68.7703 6.71857C68.8623 6.41218 69.0154 6.16707 69.23 5.95275C69.5056 5.70764 69.812 5.52381 70.1797 5.43203C70.8229 5.30919 71.4662 5.2482 72.1095 5.27899L76.0609 5.2787C77.0413 5.2787 77.7456 5.46253 78.1745 5.79941C78.6034 6.16737 78.8178 6.74907 78.8178 7.54567V7.72951L78.7873 8.0356H76.306V8.00511C76.3368 7.76 76.2447 7.54538 76.0914 7.36155C75.9075 7.2085 75.6932 7.14693 75.4481 7.14693H72.4766C72.1397 7.11615 71.8028 7.17772 71.4961 7.29998C71.3431 7.42283 71.2513 7.60637 71.2513 7.82099C71.2205 8.03531 71.3123 8.21886 71.4659 8.3417C71.7107 8.46426 71.9866 8.55632 72.2622 8.55632L76.5203 8.6173C76.9492 8.6173 77.3474 8.67858 77.7456 8.77035C78.0519 8.86241 78.3583 9.01546 78.5727 9.23008C78.9708 9.62824 79.1854 10.3328 79.1854 11.3132C79.2159 11.7727 79.1242 12.2321 78.9708 12.6608C78.8175 12.9976 78.5419 13.3043 78.2358 13.4879C77.9599 13.6409 77.6538 13.7635 77.3169 13.7939C76.7654 13.8552 76.1834 13.886 75.6322 13.886H72.1708C70.7614 13.886 69.8117 13.7327 69.3218 13.4263C68.8319 13.1202 68.6172 12.5074 68.6172 11.6498V11.4047V11.037L68.6169 11.0376ZM57.9262 13.8558H55.108L59.7334 5.40125H63.0419L67.5755 13.8558H64.7265L63.8994 12.4464H58.7536L57.9265 13.8558H57.9262ZM59.7334 10.3944H62.9806L61.3264 7.39233L59.7332 10.3944H59.7334Z" fill="#0FB8D3"/>
</svg>
