<svg width="129" height="40" viewBox="0 0 129 40" fill="none" xmlns="http://www.w3.org/2000/svg">
<path d="M56.6543 7.84573H49.6572V9.20002H56.2674V11.0702H49.6572V12.4568H56.7511V14.6172H46.9164V5.65308H56.6543V7.84573Z" fill="white"/>
<path d="M60.9751 14.5849H58.0086L62.8776 5.6853H66.36L71.1323 14.5849H68.1335L67.2629 13.1016H61.8457L60.9751 14.5849ZM62.8776 10.9412H66.2955L64.5543 7.78122L62.8776 10.9412Z" fill="white"/>
<path d="M72.2286 11.6184H74.905V11.7796C74.8727 12.0375 74.9695 12.2955 75.1629 12.4567C75.4854 12.618 75.8401 12.6502 76.1948 12.618H79.6127C79.8707 12.6502 80.1286 12.5857 80.3221 12.4567C80.4833 12.3277 80.5478 12.102 80.5478 11.8763C80.5801 11.6506 80.4833 11.4249 80.2899 11.2959C80.1609 11.2314 80.0319 11.1669 79.8707 11.1347C79.645 11.1024 79.4193 11.0702 79.2258 11.0702L74.9372 10.9735C74.4858 10.9735 74.0344 10.9412 73.6152 10.8122C73.2927 10.7477 73.0025 10.5865 72.7768 10.3608C72.3899 9.97387 72.2286 9.29672 72.2286 8.32938C72.2286 7.91019 72.2609 7.49101 72.3899 7.07182C72.4866 6.74937 72.6478 6.49142 72.8735 6.2657C73.1637 6.00774 73.4862 5.81427 73.8731 5.71754C74.5503 5.58856 75.2274 5.52407 75.9046 5.55631H80.0642C81.096 5.55631 81.8376 5.74978 82.2891 6.10448C82.7405 6.49142 82.9662 7.10407 82.9662 7.94244V8.13591L82.934 8.45836H80.3221V8.42611C80.3544 8.16815 80.2576 7.94244 80.0964 7.74897C79.9029 7.58774 79.6772 7.52325 79.4193 7.52325H76.2915C75.9368 7.49101 75.5821 7.5555 75.2597 7.68448C75.0984 7.81346 75.0017 8.00693 75.0017 8.23264C74.9695 8.45836 75.0662 8.65183 75.2274 8.78081C75.4854 8.90979 75.7756 9.00652 76.0658 9.00652L80.5478 9.07101C80.9993 9.07101 81.4184 9.1355 81.8376 9.23223C82.1601 9.32897 82.4825 9.49019 82.7082 9.71591C83.1274 10.1351 83.3531 10.8767 83.3531 11.9086C83.3854 12.3922 83.2886 12.8759 83.1274 13.3273C82.9662 13.682 82.676 14.0045 82.3535 14.198C82.0633 14.3592 81.7409 14.4882 81.3862 14.5204C80.8058 14.5849 80.1931 14.6171 79.6127 14.6171H75.9691C74.4858 14.6171 73.4862 14.4559 72.9703 14.1335C72.4544 13.811 72.2286 13.1661 72.2286 12.2633V12.0053V11.6184Z" fill="white"/>
<path d="M92.1238 14.5849H89.4152V11.3604L84.4818 5.65308H87.8352L90.7695 9.20002L93.8328 5.65308H97.0573L92.1238 11.3604V14.5849Z" fill="white"/>
<path d="M55.0099 27.8054H46.9164V18.8735H54.6229C55.5903 18.8735 56.2997 19.067 56.7511 19.4862C57.2025 19.9054 57.4605 20.518 57.4605 21.3564C57.525 22.1948 57.009 22.9686 56.2029 23.2266C56.6544 23.2588 57.1058 23.5168 57.396 23.8715C57.6862 24.3229 57.8152 24.8388 57.7829 25.3548C57.7829 26.1931 57.5572 26.8058 57.138 27.1927C56.7188 27.5797 55.9772 27.8054 55.0099 27.8054ZM54.107 22.356C54.3005 22.356 54.4617 22.2915 54.6229 22.1625C54.7519 22.0013 54.8164 21.8078 54.7841 21.6144C54.7841 21.4209 54.7197 21.2274 54.5907 21.0984C54.4617 20.9695 54.3005 20.8727 54.107 20.8727H49.5282V22.356H54.107ZM54.3327 25.774C54.5262 25.774 54.7197 25.7095 54.8486 25.5482C54.9776 25.387 55.0421 25.1613 55.0421 24.9356C55.0421 24.7421 54.9776 24.5164 54.8486 24.3552C54.7197 24.2262 54.5262 24.1295 54.3327 24.1295H49.496V25.7417L54.3327 25.774Z" fill="white"/>
<path d="M63.845 27.9023C63.1034 27.9345 62.3618 27.87 61.6524 27.7733C61.2332 27.7088 60.8785 27.5476 60.5238 27.2896C60.2013 27.0316 59.9434 26.6769 59.8144 26.29C59.6532 25.7741 59.5887 25.1937 59.5887 24.6455V22.2272C59.5565 21.6145 59.6532 21.0341 59.8144 20.4537C59.9434 20.0345 60.2013 19.6798 60.5238 19.4218C60.8785 19.1961 61.2654 19.0027 61.6524 18.9382C62.3618 18.8092 63.1034 18.7769 63.845 18.7769H66.9083C67.6499 18.7447 68.3593 18.8092 69.101 18.9059C69.5201 18.9704 69.9071 19.1316 70.2618 19.3896C70.5842 19.6476 70.8422 20.0022 70.9712 20.4214C71.1324 20.9696 71.1969 21.5178 71.1969 22.0982V24.581C71.1969 25.1292 71.1324 25.7096 70.9712 26.2578C70.8422 26.677 70.6165 27.0316 70.2618 27.2896C69.9393 27.5476 69.5201 27.7088 69.101 27.7733C68.3916 27.87 67.6499 27.9345 66.9083 27.9023H63.845ZM64.5544 25.6774H66.1989C67.1018 25.6774 67.7144 25.5484 68.0369 25.3227C68.3593 25.0969 68.4883 24.6455 68.4883 23.9684V22.7108C68.4883 22.0659 68.3271 21.6145 68.0369 21.3565C67.7467 21.0986 67.134 20.9696 66.1989 21.0018H64.5222C63.5871 21.0018 62.9744 21.1308 62.6842 21.3565C62.394 21.6145 62.2328 22.0659 62.2328 22.7431V23.9684C62.2328 24.6133 62.394 25.0647 62.6842 25.2904C62.9744 25.5161 63.6516 25.6774 64.5544 25.6774Z" fill="white"/>
<path d="M77.3234 27.9023C76.5817 27.9345 75.8401 27.87 75.1307 27.7733C74.7115 27.7088 74.3568 27.5476 74.0021 27.2896C73.6797 27.0316 73.4217 26.6769 73.2927 26.29C73.1315 25.7741 73.067 25.1937 73.067 24.6455V22.2272C73.0348 21.6145 73.1315 21.0341 73.2927 20.4537C73.4217 20.0345 73.6797 19.6798 74.0021 19.4218C74.3568 19.1639 74.7438 19.0027 75.163 18.9382C75.8723 18.8092 76.614 18.7769 77.3234 18.7769H80.3866C81.1283 18.7447 81.8377 18.8092 82.5793 18.9059C82.9985 18.9704 83.3854 19.1316 83.7401 19.3896C84.0626 19.6476 84.3205 20.0022 84.4495 20.4214C84.6107 20.9696 84.6752 21.5178 84.6752 22.0982V24.581C84.6752 25.1292 84.6107 25.7096 84.4495 26.2578C84.3205 26.677 84.0948 27.0316 83.7401 27.2896C83.4177 27.5476 82.9985 27.7088 82.6115 27.7733C81.9021 27.87 81.1605 27.9345 80.4189 27.9023H77.3234ZM78.0327 25.6774H79.6772C80.5801 25.6774 81.1928 25.5484 81.5152 25.3227C81.8376 25.0969 81.9666 24.6455 81.9666 23.9684V22.7108C81.9666 22.0659 81.8054 21.6145 81.5152 21.3565C81.225 21.0986 80.6123 20.9696 79.6772 21.0018H78.0005C77.0654 21.0018 76.4527 21.1308 76.1303 21.3565C75.8078 21.5823 75.6789 22.0659 75.6789 22.7431V23.9684C75.6789 24.6133 75.8401 25.0647 76.1303 25.2904C76.485 25.5484 77.0976 25.6774 78.0327 25.6774Z" fill="white"/>
<path d="M89.3507 22.1948H90.447L93.865 18.8735H97.3474L92.7364 23.2911L97.9601 27.8054H94.3164L90.447 24.4519H89.3507V27.8054H86.7388V18.8735H89.3507V22.1948Z" fill="white"/>
<path d="M102.023 27.8054H99.4111V18.8735H102.023V27.8054Z" fill="white"/>
<path d="M115.953 27.8054H112.116L106.989 21.3241V27.8054H104.377V18.8735H108.246L113.341 25.4193V18.8735H115.953V27.8054Z" fill="white"/>
<path d="M126.239 22.0981C126.271 21.7434 126.142 21.421 125.884 21.2275C125.658 21.0663 125.11 21.0018 124.272 21.0018H122.756C121.854 21.0018 121.305 21.0985 121.047 21.3242C120.79 21.5499 120.661 22.0014 120.661 22.743V23.9683C120.661 24.6132 120.79 25.0646 121.08 25.2904C121.37 25.5161 121.918 25.645 122.756 25.645H124.272C124.788 25.6773 125.336 25.6128 125.82 25.4193C126.11 25.2904 126.271 25.0001 126.239 24.6777L126.207 24.452V24.4197H123.176V22.6463H128.98V25.5806C128.98 26.4189 128.69 26.9993 128.077 27.354C127.464 27.7087 126.432 27.9022 124.981 27.9022H122.079C121.402 27.9344 120.757 27.8699 120.112 27.741C119.725 27.6442 119.338 27.483 119.016 27.225C118.661 26.9671 118.403 26.5801 118.274 26.1932C118.113 25.6773 118.016 25.1614 118.049 24.6132V22.1948C118.049 20.9373 118.339 20.0344 118.919 19.5185C119.5 19.0026 120.564 18.7446 122.079 18.7446H124.981C125.465 18.7446 125.884 18.7446 126.207 18.7769C126.497 18.7769 126.787 18.8414 127.045 18.8736C127.432 18.9381 127.787 19.0671 128.109 19.325C128.367 19.5508 128.593 19.8732 128.69 20.1957C128.818 20.6471 128.883 21.0985 128.883 21.5499V21.8401V22.0336L126.239 22.0981Z" fill="white"/>
<path d="M27.3115 4.39551C35.1147 6.26571 39.9192 14.069 38.049 21.8723C36.1788 29.6755 28.3755 34.48 20.5723 32.6098C17.8315 31.9649 15.3486 30.5139 13.4139 28.4825C13.3494 28.5147 13.2849 28.547 13.2204 28.5792C18.1539 35.4796 27.7629 37.0919 34.6633 32.1584C41.5637 27.2249 43.176 17.6159 38.2425 10.7155C35.6951 7.16857 31.6968 4.84694 27.3115 4.39551Z" fill="white"/>
<path d="M23.6356 5.10498C16.058 5.10498 9.89926 11.2638 9.89926 18.8413C9.89926 19.2605 9.89926 19.6474 9.96375 20.0344C10.6086 19.6152 11.2535 19.196 11.9307 18.7768C13.5107 11.3605 20.8303 6.62049 28.2466 8.23274C31.3744 8.90988 34.1797 10.6511 36.1466 13.1662C33.9217 8.23274 29.0205 5.10498 23.6356 5.10498Z" fill="white"/>
<path d="M24.6352 36.6083C19.347 36.6083 14.3813 34.1577 11.1568 29.9658C10.9956 30.0948 10.8021 30.2238 10.6087 30.3528C9.93152 30.8687 9.28662 31.4168 8.67397 31.9972C8.35152 32.3197 8.09356 32.6099 7.8356 32.9324C15.3164 40.6066 27.5695 40.7679 35.2438 33.287C36.0822 32.4809 36.8238 31.6103 37.4687 30.6752C34.2764 34.4479 29.5687 36.6083 24.6352 36.6083Z" fill="white"/>
<path d="M5.51384 23.5168C6.22323 22.8719 6.96486 22.227 7.77099 21.6143C7.7065 20.9694 7.67425 20.2923 7.67425 19.6152C7.67425 10.2319 15.2841 2.65433 24.6673 2.65433C30.5681 2.65433 36.0498 5.74984 39.1453 10.7801C34.3731 1.20331 22.7326 -2.73057 13.1236 2.00943C4.38527 6.33025 0.225672 16.4229 3.35343 25.645C3.96608 24.9678 4.67547 24.2907 5.51384 23.5168Z" fill="white"/>
<path d="M27.3115 4.39551C35.1147 6.26571 39.9192 14.069 38.049 21.8723C36.1788 29.6755 28.3755 34.48 20.5723 32.6098C17.8315 31.9649 15.3486 30.5139 13.4139 28.4825C13.3494 28.5147 13.2849 28.547 13.2204 28.5792C18.1539 35.4796 27.7629 37.0919 34.6633 32.1584C41.5637 27.2249 43.176 17.6159 38.2425 10.7155C35.6951 7.16857 31.6968 4.84694 27.3115 4.39551Z" fill="white"/>
<path d="M23.6356 5.10498C16.058 5.10498 9.89926 11.2638 9.89926 18.8413C9.89926 19.2605 9.89926 19.6474 9.96375 20.0344C10.6086 19.6152 11.2535 19.196 11.9307 18.7768C13.5107 11.3605 20.8303 6.62049 28.2466 8.23274C31.3744 8.90988 34.1797 10.6511 36.1466 13.1662C33.9217 8.23274 29.0205 5.10498 23.6356 5.10498Z" fill="white"/>
<path d="M24.6352 36.6083C19.347 36.6083 14.3813 34.1577 11.1568 29.9658C10.9956 30.0948 10.8021 30.2238 10.6087 30.3528C9.93152 30.8687 9.28662 31.4168 8.67397 31.9972C8.35152 32.3197 8.09356 32.6099 7.8356 32.9324C15.3164 40.6066 27.5695 40.7679 35.2438 33.287C36.0822 32.4809 36.8238 31.6103 37.4687 30.6752C34.2764 34.4479 29.5687 36.6083 24.6352 36.6083Z" fill="white"/>
<path d="M5.51384 23.5168C6.22323 22.8719 6.96486 22.227 7.77099 21.6143C7.7065 20.9694 7.67425 20.2923 7.67425 19.6152C7.67425 10.2319 15.2841 2.65433 24.6673 2.65433C30.5681 2.65433 36.0498 5.74984 39.1453 10.7801C34.3731 1.20331 22.7326 -2.73057 13.1236 2.00943C4.38527 6.33025 0.225672 16.4229 3.35343 25.645C3.96608 24.9678 4.67547 24.2907 5.51384 23.5168Z" fill="white"/>
<path d="M13.4139 24.5163C11.2212 25.6771 9.15753 27.0637 7.22283 28.6437C6.28773 29.4176 5.44936 30.2559 4.64324 31.1588C3.83711 32.0294 3.19221 33.029 2.6763 34.1253C2.45058 34.6412 2.25711 35.1894 2.19262 35.7698C2.16038 36.06 2.16038 36.318 2.19262 36.6082C2.22487 36.8661 2.3216 37.1241 2.41834 37.3821C2.6763 37.898 3.06324 38.2849 3.54691 38.5751C4.06283 38.8653 4.57875 39.091 5.15916 39.2523C6.35222 39.5425 7.57752 39.7037 8.80283 39.7682C10.0281 39.8004 11.2857 39.8004 12.511 39.7359C11.2857 39.8649 10.0281 39.9616 8.80283 39.9939C7.54528 40.0261 6.31997 39.9294 5.09467 39.7037C4.48201 39.5747 3.86936 39.3812 3.28895 39.091C2.35385 38.6396 1.70895 37.769 1.51548 36.7694C1.45099 36.4469 1.45099 36.0923 1.45099 35.7698C1.48323 35.1249 1.64446 34.48 1.90242 33.8674C2.38609 32.6743 3.03099 31.578 3.83711 30.5461C4.61099 29.5465 5.4816 28.6114 6.38446 27.7408C8.15793 26.0641 10.1249 24.5486 12.2208 23.291L13.4139 24.5163Z" fill="white"/>
<path d="M14.5747 26.8056C12.9947 27.6117 11.5115 28.5791 10.0927 29.6432C9.3833 30.1591 8.70616 30.7395 8.06126 31.3521C7.41636 31.9648 6.8682 32.6419 6.41677 33.3836C6.19106 33.7383 6.02983 34.1574 5.9331 34.5766C5.83636 34.9636 5.80412 35.3828 5.86861 35.7697C5.9331 35.9632 5.99759 36.1566 6.09432 36.3179L6.25555 36.5758L6.44902 36.8338C6.70697 37.1562 7.06167 37.4142 7.41636 37.6399C7.8033 37.8656 8.22249 37.9946 8.64167 38.0913L8.96412 38.1558L9.28657 38.2203C9.51228 38.2526 9.738 38.2848 9.96371 38.317C10.8666 38.4138 11.7694 38.446 12.7045 38.4138C11.8017 38.5105 10.8666 38.575 9.93147 38.5428C9.70575 38.5428 9.44779 38.5428 9.25432 38.5105L8.89963 38.4783L8.54494 38.4138C8.06126 38.3493 7.60983 38.1881 7.19065 37.9946C6.73922 37.8011 6.35228 37.5109 5.99759 37.1885L5.73963 36.8983L5.54616 36.5758C5.41718 36.3501 5.32044 36.1244 5.22371 35.8987C5.06248 35.415 5.06248 34.8991 5.15922 34.3832C5.25595 33.8995 5.41718 33.4158 5.64289 32.9644C6.06208 32.0938 6.61024 31.3199 7.25514 30.5783C7.86779 29.8689 8.54494 29.1917 9.25432 28.5791C10.7053 27.3215 12.2853 26.193 13.8976 25.1934L14.5747 26.8056Z" fill="white"/>
<path d="M12.6723 20.7759C12.5755 20.6791 12.5755 20.5179 12.64 20.4212C12.7045 20.3244 12.8012 20.2599 12.898 20.2599H12.9625L13.8331 20.4212C13.8331 20.4212 13.8653 20.4212 13.8976 20.4212C15.7678 19.3248 17.767 18.4542 19.7984 17.8093L18.7021 16.5195C14.607 18.0028 9.8347 20.8726 6.15878 24.1938C2.83755 27.1926 1.90245 29.0306 0 32.9322C2.35388 29.353 5.03021 26.3542 8.22246 24.0648C9.41552 23.2265 11.0923 22.0979 12.898 21.0338L12.6723 20.7759Z" fill="white"/>
<path d="M29.8266 15.8424C29.7299 15.8746 29.6654 15.9069 29.6009 15.9391C29.4397 16.0036 29.3107 16.0681 29.1495 16.1648L26.5376 17.4546L25.0543 16.713L26.1184 16.0681C26.4086 15.9069 26.4731 15.5522 26.3119 15.262C26.2797 15.2297 26.2797 15.1975 26.2474 15.1975C25.9895 14.875 25.5058 14.8428 25.2156 15.1007L25.1833 15.133L24.0225 16.1971L18.5086 13.3595C18.3152 13.2628 18.1217 13.2305 17.9282 13.1983L16.7029 13.1338L23.3776 19.0024L17.2511 22.0334C17.0576 22.1301 16.8319 22.1624 16.6384 22.0979L13.7364 20.7436L12.898 20.5501L15.4454 23.5167C15.4776 23.5489 15.4776 23.5811 15.5098 23.5811L16.5417 27.1926L16.9609 26.322L17.5413 23.6779C17.5735 23.5167 17.7025 23.3877 17.8637 23.3232L24.8609 20.9371L25.796 28.9338L26.6021 28.1922C26.6988 28.0309 26.7633 27.8375 26.7956 27.644L27.505 22.2913L28.8915 22.2269C29.3107 22.1946 29.6331 21.8399 29.6009 21.453V21.4207C29.5686 21.0983 29.2784 20.8726 28.956 20.8726C28.9237 20.8726 28.8915 20.8726 28.8592 20.9048L27.6662 21.195L27.8274 19.9375L30.0523 19.1636C30.407 19.0669 30.7617 18.9379 31.0842 18.8089C33.0188 18.0028 34.3409 16.6485 33.9862 15.8424C33.6315 15.0362 31.7935 15.0362 29.8266 15.8424Z" fill="white"/>
<path d="M66.7793 31.3845C66.9727 31.3845 67.134 31.4168 67.2952 31.5135C67.4564 31.578 67.5531 31.6747 67.5854 31.7715V31.8037V31.836V35.1572C67.5854 35.1894 67.5854 35.1894 67.5854 35.2217C67.5854 35.2539 67.5854 35.2539 67.5531 35.2862C67.5209 35.3507 67.4242 35.4152 67.3274 35.4796C67.2307 35.5441 67.0372 35.5764 66.8115 35.5764H66.6825H65.7797C65.554 35.5764 65.3927 35.5441 65.2638 35.4796C65.1348 35.4152 65.0703 35.3507 65.038 35.2862C65.038 35.2539 65.0058 35.2539 65.0058 35.2217C65.0058 35.1894 65.0058 35.1894 65.0058 35.1572V31.8037V31.7715V31.7392C65.038 31.6425 65.1348 31.578 65.296 31.4813C65.4572 31.4168 65.6185 31.3523 65.8119 31.3523H65.9409H66.7793V31.3845ZM66.3923 31.8682C66.3601 31.8682 66.3278 31.836 66.2633 31.836C66.2311 31.836 66.1989 31.836 66.1666 31.8682C66.1344 31.8682 66.1021 31.9005 66.1021 31.9327V34.996C66.1021 35.0282 66.1021 35.0605 66.1344 35.0605C66.1666 35.0605 66.1989 35.0927 66.2311 35.0927C66.2633 35.0927 66.3278 35.0605 66.3601 35.0605C66.3923 35.0605 66.4246 35.0282 66.4246 34.996V31.9327C66.4246 31.9005 66.4246 31.8682 66.3923 31.8682Z" fill="white"/>
<path d="M70.3584 33.2225V31.4167H70.4874H71.3902V35.5119H71.2613H70.2294L69.6813 33.5449V35.5119H69.5523H68.6494V31.4167H68.7784H69.8102L70.3584 33.2225Z" fill="white"/>
<path d="M73.5507 35.0927H74.1956V35.5119H74.0666H72.3899V31.4167H72.5189H73.5507V35.0927Z" fill="white"/>
<path d="M76.227 31.4167V35.5119H76.098H75.0662V31.4167H75.1951H76.227Z" fill="white"/>
<path d="M79.0001 33.2225V31.4167H79.129H80.0319V35.5119H79.9029H78.8711L78.3229 33.5449V35.5119H78.1939H77.2911V31.4167H77.4201H78.4519L79.0001 33.2225Z" fill="white"/>
<path d="M82.8372 33.029V33.4482H82.1923V35.0604H82.8372V35.4796H82.7082H81.0315V31.4167H81.1605H82.8372V31.8359H82.1923V33.029H82.8372Z" fill="white"/>
<path d="M88.1898 31.4167H88.3188H90.0278C90.2535 31.4167 90.447 31.449 90.6082 31.5135C90.7694 31.578 90.8339 31.6747 90.8339 31.8037V32.6421C90.8339 32.771 90.8017 32.8678 90.7694 32.9967C90.7049 33.0935 90.576 33.1902 90.3825 33.287C90.4147 33.287 90.447 33.287 90.447 33.3192C90.4792 33.3192 90.5115 33.3514 90.5115 33.3514C90.5437 33.3837 90.6082 33.4159 90.6405 33.4482C90.6727 33.4804 90.7049 33.5127 90.7372 33.5449C90.7694 33.5772 90.7694 33.5772 90.8017 33.6094C90.8017 33.6416 90.8339 33.6416 90.8339 33.6739V35.0927C90.8339 35.2216 90.7694 35.3184 90.6082 35.4151C90.447 35.5119 90.2858 35.5441 90.0278 35.5441H89.8988H88.1576V31.4167H88.1898ZM89.5441 31.8682C89.4796 31.8682 89.4151 31.8359 89.3184 31.8359V33.029C89.3184 33.029 89.3184 33.029 89.3507 33.029C89.3507 33.029 89.3507 33.029 89.3829 33.029C89.4474 33.029 89.5119 33.029 89.5764 32.9967C89.6409 32.9967 89.6731 32.9645 89.6731 32.9645V31.9327C89.6731 31.9004 89.6409 31.9004 89.5441 31.8682ZM89.3829 35.0927C89.4152 35.0927 89.4151 35.0927 89.4474 35.0927C89.5119 35.0927 89.5764 35.0927 89.6086 35.0604C89.6409 35.0604 89.6731 35.0282 89.6731 35.0282V33.6094C89.6731 33.5772 89.6409 33.5772 89.5764 33.5772C89.5119 33.5772 89.4474 33.5772 89.3184 33.5449V35.0927C89.3507 35.0927 89.3507 35.0927 89.3829 35.0927Z" fill="white"/>
<path d="M93.6715 31.3845C93.8649 31.3845 94.0262 31.4168 94.1874 31.5135C94.3486 31.578 94.4453 31.6747 94.4776 31.7715V31.8037V31.836V35.1572C94.4776 35.1894 94.4776 35.1894 94.4776 35.2217C94.4776 35.2539 94.4776 35.2539 94.4453 35.2862C94.4131 35.3507 94.3164 35.4152 94.2196 35.4796C94.1229 35.5441 93.9294 35.5764 93.7037 35.5764H93.5747H92.6396C92.4139 35.5764 92.2205 35.5441 92.1237 35.4796C91.9947 35.4152 91.9302 35.3507 91.898 35.2862C91.898 35.2539 91.8658 35.2539 91.8658 35.2217C91.8658 35.1894 91.8658 35.1894 91.8658 35.1572V31.8037V31.7715V31.7392C91.898 31.6425 91.9947 31.578 92.156 31.4813C92.3172 31.4168 92.4784 31.3523 92.6719 31.3523H92.8009H93.6715V31.3845ZM93.2845 31.8682C93.2523 31.8682 93.22 31.836 93.1556 31.836C93.1233 31.836 93.0911 31.836 93.0588 31.8682C93.0266 31.8682 92.9943 31.9005 92.9943 31.9327V34.996C92.9943 35.0282 92.9943 35.0605 93.0266 35.0605C93.0588 35.0605 93.0911 35.0927 93.1233 35.0927C93.1555 35.0927 93.22 35.0605 93.2523 35.0605C93.2845 35.0605 93.3168 35.0282 93.3168 34.996V31.9327C93.3168 31.9005 93.3168 31.8682 93.2845 31.8682Z" fill="white"/>
<path d="M97.3152 31.3845C97.5086 31.3845 97.6699 31.4168 97.8311 31.5135C97.9923 31.578 98.089 31.6747 98.1213 31.7715V31.8037V31.836V35.1572C98.1213 35.1894 98.1213 35.1894 98.1213 35.2217C98.1213 35.2539 98.1213 35.2539 98.0891 35.2862C98.0568 35.3507 97.9601 35.4152 97.8633 35.4796C97.7666 35.5441 97.5731 35.5764 97.3474 35.5764H97.2184H96.2833C96.0576 35.5764 95.8642 35.5441 95.7674 35.4796C95.6384 35.4152 95.5739 35.3507 95.5417 35.2862C95.5417 35.2539 95.5095 35.2539 95.5095 35.2217C95.5095 35.1894 95.5095 35.1894 95.5095 35.1572V31.8037V31.7715V31.7392C95.5417 31.6425 95.6384 31.578 95.7997 31.4813C95.9609 31.4168 96.1221 31.3523 96.3156 31.3523H96.4446H97.3152V31.3845ZM96.9282 31.8682C96.896 31.8682 96.8637 31.836 96.7993 31.836C96.767 31.836 96.7348 31.836 96.7025 31.8682C96.6703 31.8682 96.638 31.9005 96.638 31.9327V34.996C96.638 35.0282 96.638 35.0605 96.6703 35.0605C96.7025 35.0605 96.7348 35.0927 96.767 35.0927C96.7993 35.0927 96.8637 35.0605 96.896 35.0605C96.9282 35.0605 96.9605 35.0282 96.9605 34.996V31.9327C96.9927 31.9005 96.9605 31.8682 96.9282 31.8682Z" fill="white"/>
<path d="M100.314 33.8996V35.5441H100.185H99.1531V31.4167H99.2821H100.314V32.771L100.636 31.4167H100.765H101.797L101.185 33.2547L101.862 35.5119H101.733H100.701L100.314 33.8996Z" fill="white"/>
<path d="M103.861 31.4167V35.5119H103.732H102.7V31.4167H102.829H103.861Z" fill="white"/>
<path d="M106.602 33.2225V31.4167H106.731H107.633V35.5119H107.505H106.473L105.925 33.5449V35.5119H105.796H104.893V31.4167H105.022H106.053L106.602 33.2225Z" fill="white"/>
<path d="M110.407 35.4796C110.31 35.5119 110.213 35.5119 110.116 35.5119H110.084H110.052H109.923H109.407C109.407 35.5119 109.375 35.5119 109.343 35.5119C109.31 35.5119 109.31 35.5119 109.278 35.5119C109.117 35.5119 108.956 35.4796 108.827 35.4152C108.698 35.3507 108.633 35.2862 108.633 35.2217V31.8037V31.7715V31.7392C108.665 31.6425 108.762 31.578 108.923 31.4813C109.085 31.4168 109.246 31.3523 109.439 31.3523H109.568H110.471C110.665 31.3523 110.826 31.3845 110.987 31.4813C111.148 31.5458 111.245 31.6425 111.277 31.7392V31.7715V31.8037V32.8356H111.148H110.116V31.9327C110.116 31.9005 110.084 31.8682 110.052 31.8682C110.02 31.8682 109.987 31.836 109.923 31.836C109.891 31.836 109.826 31.836 109.794 31.8682C109.762 31.8682 109.729 31.9005 109.729 31.9327V34.996C109.729 35.0282 109.762 35.0605 109.794 35.0605C109.826 35.0605 109.858 35.0927 109.891 35.0927C109.923 35.0927 109.987 35.0927 110.02 35.0605C110.052 35.0282 110.084 35.0282 110.084 34.996V33.8352L109.858 33.7384V33.3515H109.987H111.245V35.5119H111.116H110.729L110.568 35.4152C110.568 35.4474 110.503 35.4796 110.407 35.4796Z" fill="white"/>
<path d="M112.986 34.1253C113.36 34.1253 113.663 33.8221 113.663 33.4481C113.663 33.0742 113.36 32.771 112.986 32.771C112.612 32.771 112.309 33.0742 112.309 33.4481C112.309 33.8221 112.612 34.1253 112.986 34.1253Z" fill="white"/>
<path d="M63.2968 34.1253C63.6708 34.1253 63.9739 33.8221 63.9739 33.4481C63.9739 33.0742 63.6708 32.771 63.2968 32.771C62.9228 32.771 62.6196 33.0742 62.6196 33.4481C62.6196 33.8221 62.9228 34.1253 63.2968 34.1253Z" fill="white"/>
<path d="M124.175 29.8691H54.1715V30.3206H124.175V29.8691Z" fill="white"/>
<path d="M123.821 36.2856H53.8168V36.7371H123.821V36.2856Z" fill="white"/>
</svg>
