<svg width="265" height="193" viewBox="0 0 265 193" fill="none" xmlns="http://www.w3.org/2000/svg">
<path d="M20.7579 64.434L186.821 7.15933C192.326 5.26056 198.36 5.62654 203.596 8.17675C208.831 10.727 212.839 15.2525 214.738 20.7578L257.694 145.305C259.593 150.81 259.227 156.844 256.676 162.08C254.126 167.315 249.601 171.323 244.095 173.222L78.0326 230.497C66.512 234.47 54.053 228.315 50.1154 216.898L7.15934 92.3512C3.18591 80.8306 9.23724 68.4075 20.7579 64.434ZM128.847 108.449L193.98 27.9172L27.9172 85.1919L128.847 108.449ZM70.8732 209.739L236.936 152.464L202.464 52.5152L137.295 132.943L36.401 109.79L70.8732 209.739Z" fill="white"/>
</svg>
