<svg width="1200" height="250" viewBox="0 0 1200 250" fill="none" xmlns="http://www.w3.org/2000/svg">
<g clip-path="url(#clip0)">
<rect width="1200" height="250" fill="white"/>
<rect width="1200" height="250" fill="#0FB8D3"/>
<path d="M225.758 121.434L391.821 64.1592C397.326 62.2604 403.36 62.6264 408.596 65.1766C413.831 67.7268 417.839 72.2524 419.738 77.7577L462.694 202.305C464.593 207.81 464.227 213.844 461.676 219.08C459.126 224.315 454.601 228.323 449.095 230.222L283.033 287.497C271.512 291.47 259.053 285.315 255.115 273.898L212.159 149.351C208.186 137.831 214.237 125.407 225.758 121.434ZM333.847 165.449L398.98 84.9171L232.917 142.192L333.847 165.449ZM275.873 266.739L441.936 209.464L407.464 109.515L342.295 189.943L241.401 166.79L275.873 266.739Z" fill="white"/>
<path opacity="0.75" d="M1130.36 54.4698C1126.46 52.272 1122.45 50.0231 1118.03 49.3586C1113.62 48.6942 1108.59 49.2564 1105.95 52.8853C1099.97 49.1542 1091.64 48.8986 1085.15 51.6587C1083.93 47.9275 1078.45 46.1386 1075.05 48.0297C1075.4 43.9919 1072.92 39.8007 1069.21 38.2162C1065.46 36.6318 1060.79 37.8074 1058.2 40.9252C1057.29 39.5452 1055.41 38.8296 1053.84 39.2896C1052.21 39.7496 1051.5 40.2607 1051.35 41.9474C1049.07 36.9385 1045.01 32.6451 1039.88 30.7539C1034.76 28.8117 1028.62 29.5272 1024.4 33.1051C1020.19 36.6829 1018.21 42.7652 1020.65 47.723C1017.25 43.5319 1011.82 41.1296 1006.44 41.4874C1001.06 41.7941 995.833 45.0652 992.94 49.6142C990.606 46.7519 985.988 46.1386 982.994 48.3364C981.776 45.5764 977.817 44.8097 975.787 46.9564C976.853 43.7363 975.99 39.9029 973.656 37.4496C971.322 34.9962 968.531 34.3829 965.232 35.3029C965.536 33.3606 965.892 31.3673 965.486 29.425C965.08 27.4828 963.76 25.6427 961.883 25.1316C959.954 24.6716 958.889 25.9494 958.99 27.9428C955.996 22.8827 950.059 19.7138 944.172 20.0204C938.336 20.3271 932.754 24.1605 930.369 29.5783C928.592 33.514 928.694 38.0118 930.267 41.9985C929.252 40.5163 928.085 39.1363 926.562 38.1651C923.771 36.3251 919.559 36.2229 917.428 38.8296C916.007 40.5674 915.906 43.123 916.565 45.2697C917.225 47.4164 918.291 49.512 919.61 51.352C918.646 49.8186 916.768 48.9497 914.992 49.1031C913.216 49.2564 911.592 50.3298 910.932 51.9653C908.852 50.3809 905.959 50.6875 903.371 51.0964C893.983 52.5787 884.95 55.2876 875.612 56.361H875.511H875.561C873.075 56.6676 870.588 56.821 868 56.821H882.006C907.887 58.6099 933.921 59.0188 959.853 58.0988C968.175 57.7921 976.498 60.3477 984.516 58.1499C1003.65 64.6922 1024.86 64.6411 1043.89 57.8432C1056.32 60.7566 1069.26 61.5232 1081.95 60.1943C1090.17 59.3254 1098.49 61.9833 1105.8 58.0988C1110.27 59.8366 1115.49 59.7343 1119.71 57.4343C1122.55 59.2743 1129.5 56.8721 1143 56.8721C1138.38 55.3387 1134.68 56.8721 1130.36 54.4698Z" fill="white"/>
<path opacity="0.7" d="M245.856 83.0217C242.598 82.4747 231.665 80.0678 225.149 76.7311C223.327 75.8012 220.235 73.6131 218.191 73.1755C217.915 73.1208 217.584 73.0661 217.308 73.0661C218.136 70.878 218.523 68.5259 218.357 66.1737C218.247 64.2592 217.694 62.2353 216.259 60.9224C214.823 59.6096 212.614 59.3908 211.289 60.813C212.283 55.9993 209.301 50.6386 204.608 48.8882C199.969 47.1377 194.282 49.7634 191.797 53.9754C192.68 51.6779 193.343 49.107 192.68 46.7548C192.018 44.4027 189.533 42.3787 187.103 42.9804C186.385 41.6129 185.612 40.136 184.177 39.5343C182.796 38.8778 180.311 39.3154 180.256 40.8471C180.201 39.2607 178.986 37.8385 177.44 37.4556C175.894 37.0727 174.624 38.112 173.851 39.4249C172.857 36.471 171.421 33.5718 169.157 31.3291C166.893 29.141 163.746 27.7188 160.598 28.047C157.451 28.3752 154.469 30.6727 153.862 33.7359C152.923 33.2436 151.763 33.2983 150.88 33.8453C149.996 34.3923 150.217 35.3223 150.272 36.3616C145.248 35.4864 139.781 37.4556 136.468 41.3394C133.155 45.2232 132.216 50.9121 133.928 55.7258C132.216 54.5224 129.897 54.1942 127.909 54.96C125.921 55.7258 124.43 57.4762 123.988 59.5002C123.657 58.2968 122.387 57.3668 121.172 57.4762C119.902 57.5856 119.184 57.9139 119.129 59.172C114.38 52.0608 104.551 48.7788 96.4342 51.5685C88.317 54.3583 82.9608 63.0011 83.7339 71.5345C80.8073 69.6746 77.1076 69.0729 73.6841 69.8387C70.2605 70.6045 67.2235 72.7926 65.4013 75.7464C64.4073 77.3328 63.7999 79.4114 64.7386 81.0525C62.6403 79.6849 59.3824 80.0678 57.6706 81.873C53.3084 80.1225 52.5905 81.2166 48.2835 83.1311C41.8781 85.9756 35.6936 85.9756 31 85.9756H44.8599C60.045 85.9756 66.8922 89.9141 76.3898 87.4525C89.4214 91.0081 103.116 90.7893 116.147 87.1243C120.51 89.367 125.534 89.2577 130.007 87.179C140.609 89.75 151.763 89.4764 162.255 86.5226C164.574 87.726 167.445 87.4525 169.765 86.3585C177.274 88.9841 185.447 88.9841 193.233 87.179C197.54 89.3124 202.509 89.0388 206.816 86.9602C213.995 89.0388 221.615 88.9294 228.849 87.0696C232.051 87.9995 235.917 87.9448 239.119 86.9602C240.721 86.4679 242.432 86.1944 244.31 86.0303H286C272.527 85.4833 259.164 84.5533 245.856 83.0217Z" fill="white"/>
<path opacity="0.4" d="M534.98 36.7626C531.357 35.2132 527.887 34.5135 523.958 34.8633C519.876 31.5646 515.233 28.7658 510.029 27.9661C504.824 27.1664 499.211 28.6658 496.099 32.8641C493.037 29.8653 488.496 29.1656 484.414 30.615C476.506 24.3176 466.046 21.2188 455.892 22.1685C445.738 23.0681 435.074 27.7162 428.492 35.3131C424.104 34.3635 419.562 33.3639 415.123 34.1136C411.194 34.8133 407.98 36.7626 404 36.7626C418.593 39.0116 425.226 40.561 434.41 38.212C437.676 39.2116 441.299 39.8113 444.717 39.9113C449.157 40.0112 453.8 40.1112 457.882 38.3619C460.943 40.7609 466.046 40.611 469.311 38.5618C481.659 42.96 495.742 43.06 508.345 39.3115C512.631 40.9109 517.58 40.661 521.56 38.5118C525.234 40.9109 525.183 36.8125 536 36.8125L534.98 36.7626Z" fill="white"/>
<path opacity="0.45" d="M162.895 202.814C162.385 199.766 159.834 197.176 156.774 196.617C153.713 196.058 150.397 197.785 148.815 200.427C149.581 198.547 148.458 196.109 146.52 195.499C144.581 194.89 142.234 196.464 141.775 198.445C139.99 197.125 137.286 197.176 135.552 198.598C133.919 199.919 133.307 202.357 134.072 204.338C133.766 203.83 133.052 203.576 132.542 203.83C131.878 204.135 131.623 205.1 132.083 205.659C131.011 205.049 129.583 206.014 128.818 207.03C128.154 205.252 126.522 203.881 124.634 203.576C122.798 203.22 120.655 203.627 119.431 204.998C119.839 203.119 118.972 201.036 117.237 200.325C118.768 198.395 120.349 196.363 121.063 194.026C121.778 191.639 121.471 188.794 119.584 187.118C117.747 185.441 114.84 185.848 113.819 188.083C114.125 184.476 112.952 180.717 110.248 178.279C107.544 175.891 103.259 175.18 100.198 177.111C97.1375 179.041 95.454 183.562 97.6477 186.406C96.6784 185.39 94.6378 186.203 94.5868 187.575C93.7705 186.711 91.883 187.778 91.3729 188.845C90.4036 186.457 87.3937 185.187 84.843 185.746C82.2923 186.305 80.2517 188.388 79.2824 190.826C78.3131 193.264 78.2621 196.566 78.7212 199.157C78.1601 198.039 76.6806 197.531 75.5583 198.039C74.436 198.547 73.7728 199.969 74.2319 201.138C73.9769 200.223 73.0586 199.614 72.1403 199.715C71.2221 199.817 69.8957 200.681 69.8447 201.646C69.6916 199.36 67.345 197.684 65.0493 197.633C62.7537 197.582 60.6621 198.953 59.0296 200.579C57.4481 202.204 56.2748 204.186 54.8464 206.014C53.571 207.64 52.4997 209.926 50.6122 210.332C50.4081 210.332 50.2041 210.383 50 210.383C53.0609 212.313 64.029 212.466 67.549 211.704C70.5589 212.618 73.9769 212.618 76.8847 211.551C77.956 212.466 79.7925 212.415 80.7618 211.399C84.1798 212.364 88.0059 212.364 91.3218 211.094C104.535 213.634 123.92 215.615 136.878 212.11C138.204 213.177 140.092 213.583 141.775 213.177C142.541 212.974 143.255 212.618 144.02 212.516C145.04 212.364 146.112 212.567 147.132 212.618C148.152 212.618 149.223 212.313 149.734 211.399C151.825 212.77 154.58 213.126 156.927 212.313C158.202 211.856 159.375 211.043 160.243 210.027C162.538 208.808 163.303 205.303 162.895 202.814Z" fill="white"/>
<path opacity="0.4" d="M1168.83 126.294C1167.29 125.627 1165.02 126.294 1164.55 127.937C1163.86 127.182 1162.28 127.493 1161.81 128.426C1162.11 127.537 1161.55 126.427 1160.7 126.16C1159.84 125.894 1158.64 126.294 1158.43 127.226C1158.94 125.805 1159.33 124.294 1159.28 122.74C1159.28 121.229 1158.81 119.63 1157.83 118.519C1156.85 117.409 1155.26 116.787 1153.85 117.142C1152.44 117.542 1151.33 118.875 1151.5 120.385C1150.73 119.541 1149.44 119.319 1148.42 119.852C1147.43 120.385 1146.83 121.629 1147.05 122.74C1146.79 122.34 1146.32 122.118 1145.89 122.162C1145.46 122.206 1145.21 122.606 1145.08 123.05C1145.04 122.162 1144.91 121.229 1144.44 120.474C1143.97 119.719 1143.11 119.186 1142.25 119.363C1141.4 119.541 1140.71 120.385 1141.1 121.185C1139.69 120.03 1137.68 119.763 1136.01 120.474C1134.34 121.185 1133.1 122.828 1132.84 124.694C1132.8 123.761 1132.28 122.828 1131.47 122.384C1130.66 121.94 1129.63 121.762 1128.86 122.295C1128.99 121.762 1128.82 121.185 1128.43 120.785C1128.05 120.429 1127.45 120.296 1126.98 120.429C1127.19 119.452 1126.89 118.253 1126.12 117.675C1126.51 116.875 1126.42 115.854 1125.87 115.143C1125.35 114.432 1124.37 113.81 1123.51 113.988C1123.64 112.522 1122.79 111.011 1121.5 110.345C1120.22 109.679 1118.46 109.99 1117.39 111.011C1116.84 108.479 1114.19 106.835 1111.7 107.013C1109.22 107.191 1106.95 108.835 1105.46 110.878C1103.96 112.877 1103.15 115.409 1104.17 117.764C1103.1 117.364 1101.82 118.341 1101.82 119.497C1101.26 119.23 1100.45 120.118 1100.66 120.74C1099.04 119.896 1096.9 120.163 1095.53 121.407C1094.16 122.651 1093.69 124.783 1094.25 126.604C1093.56 125.805 1092.45 125.494 1091.46 125.805C1090.48 126.116 1089.71 127.138 1089.58 128.204C1089.11 127.804 1088.38 127.715 1087.83 127.937C1087.27 128.204 1086.8 129.003 1086.76 129.67C1085.9 125.894 1081.15 124.383 1077.64 125.672C1074.13 126.96 1071.31 130.292 1069 133.313H1073.11C1078.84 134.823 1084.83 135.223 1090.74 134.512C1091.42 135.223 1092.79 135.09 1093.6 134.512C1093.95 134.246 1094.25 133.89 1094.63 133.757C1095.32 133.49 1096.04 133.979 1096.73 134.246C1098.4 135.001 1100.45 134.645 1101.82 133.402C1104.69 136.023 1109.26 136.778 1112.47 134.645C1113.03 135.267 1114.53 135.09 1115.34 134.956C1116.15 134.779 1116.92 134.423 1117.74 134.423C1118.68 134.379 1119.53 134.734 1120.43 134.912C1121.33 135.09 1122.36 135.09 1123.09 134.468C1125.99 136.111 1129.89 135.978 1132.84 134.423C1134.38 135.134 1136.18 135.001 1137.68 134.246C1138.49 135.134 1139.94 135.312 1140.89 134.557C1141.57 135.09 1142.6 135.09 1143.24 134.512C1147.18 136.645 1152.4 136.422 1156.29 134.246C1158.77 135.756 1162.15 136.067 1164.85 134.956C1165.32 134.779 1165.83 134.468 1166.22 134.068C1166.64 134.29 1167.12 134.379 1167.76 134.157C1169.34 133.624 1170.67 132.246 1170.97 130.558C1171.18 128.87 1170.37 126.96 1168.83 126.294Z" fill="white"/>
</g>
<defs>
<clipPath id="clip0">
<rect width="1200" height="250" fill="white"/>
</clipPath>
</defs>
</svg>
